<svg height="19" viewBox="0 0 20 19" width="20" xmlns="http://www.w3.org/2000/svg"><path d="m16.2500123 0h-12.50002459c-2.07123038 0-3.74998771 1.59481947-3.74998771 3.56248832v11.87502338c0 1.9677062 1.67875733 3.5624883 3.74998771 3.5624883h12.50002459c2.0712697 0 3.7499877-1.5948195 3.7499877-3.5624883v-11.87502338c0-1.96766885-1.678718-3.56248832-3.7499877-3.56248832zm-8.75000247 14.1015832h-2.5v-8.31249764h2.5zm-1.17249798-8.82194763c-.64748809 0-1.17124434-.49876406-1.17124434-1.11387775s.5250148-1.11387775 1.17124434-1.11387775c.6474881.00119563 1.1725029.49992232 1.1725029 1.11387775 0 .61511369-.5250148 1.11387775-1.1725029 1.11387775zm9.92250045 8.82194763h-2.5000148v-5.13952279c0-.60207386-.1812223-1.02360777-.9599936-1.02360777-1.2912398 0-1.5400064 1.02360777-1.5400064 1.02360777v5.13952279h-2.49999996v-8.31249764h2.49999996v.79442066c.3575137-.26004928 1.2499878-.79326239 2.5-.79326239.8100091 0 2.5000148.46076547 2.5000148 3.24426422z" fill="#b22d00"/></svg>