<svg height="16" viewBox="0 0 19 16" width="19" xmlns="http://www.w3.org/2000/svg"><path d="m18.6716793 2.57379137c-.232609-1.22080512-1.0590968-2.12148064-2.0540593-2.25583556-2.356098-.31776003-4.7408308-.31941873-7.11458037-.31776003-2.37414184-.0016587-4.75926691 0-7.11536488.31776003-.99437416.13435492-1.82027348 1.03503044-2.0528825 2.25583556-.3310658 1.7385573-.33479225 3.63635006-.33479225 5.42632714s0 3.68753289.33106579 5.42585319c.23221677 1.2205682 1.05831222 2.1212437 2.05327476 2.2558356 2.35590185.317997 4.74083079.3196557 7.11497263.317997 2.37453412.0016587 4.75887462 0 7.11458042-.317997.9943741-.1343549 1.8210579-1.0350304 2.053667-2.2558356.3312619-1.7385573.3324394-3.63611307.3324394-5.42585319 0-1.78997708.0027451-3.68776984-.3283207-5.42632714zm-11.6716793 9.42620863c0-2.67590598 0-5.32384431 0-8 2.00019482 1.33770328 3.987142 2.66641696 6 4.01236071-2.0066238 1.33395761-3.9945451 2.65468049-6 3.98763929z" fill="#b22d00"/></svg>