<svg height="40" viewBox="0 0 28 40" width="28" xmlns="http://www.w3.org/2000/svg"><path d="m27.7895676 25.7425095-21.67540643-25.4384523c-.31175175-.36427378-.85731732-.40763971-1.22102769-.09540504-.16453565.13877097-.2684529.32958104-.29443221.53773749l-4.58967854 33.14024085c-.06927817.4770252.26845289.9106844.73608052.9800699.22515404.0346927.45896785-.0260196.64082304-.1647905l8.82430651-6.7303918 3.3426715 11.4052386c.1385563.4596788.6148437.7198744 1.0738116.5897766l4.762874-1.405056c.4589678-.1387709.7187609-.6157961.5888644-1.075475l-3.2733934-11.1537162 10.3570859.841299c.4762874.0346927.8919564-.3209079.9352553-.7979331.0173195-.234176-.0519587-.4596788-.2078345-.6331425zm-12.2773908-1.2399188c-.4739602-.0345423-.8875983.3195164-.9306856.7944732-.0086175.1036269 0 .2072539.0344698.3108808l3.3694268 11.4853195-3.0850506.9067358-3.4383664-11.7271157c-.1378794-.4576857-.6118397-.716753-1.068565-.5872194-.1034095.0259068-.1982016.0777202-.2757587.1381693l-8.1176471 6.1917098 4.02435369-29.015544 18.97564631 22.2711572z" fill="#747474"/></svg>