<?xml version="1.0" encoding="utf-8"?>
<svg xmlns="http://www.w3.org/2000/svg" xmlns:xlink="http://www.w3.org/1999/xlink" style="margin: auto; background: rgb(255, 255, 255); display: block; shape-rendering: auto;" width="200px" height="200px" viewBox="0 0 100 100" preserveAspectRatio="xMidYMid">
<g transform="rotate(0 50 50)">
  <rect x="47" y="24" rx="3" ry="6" width="6" height="12" fill="#fff0ea">
    <animate attributeName="opacity" values="1;0" keyTimes="0;1" dur="2.3255813953488373s" begin="-2.131782945736434s" repeatCount="indefinite"></animate>
  </rect>
</g><g transform="rotate(30 50 50)">
  <rect x="47" y="24" rx="3" ry="6" width="6" height="12" fill="#fff0ea">
    <animate attributeName="opacity" values="1;0" keyTimes="0;1" dur="2.3255813953488373s" begin="-1.937984496124031s" repeatCount="indefinite"></animate>
  </rect>
</g><g transform="rotate(60 50 50)">
  <rect x="47" y="24" rx="3" ry="6" width="6" height="12" fill="#fff0ea">
    <animate attributeName="opacity" values="1;0" keyTimes="0;1" dur="2.3255813953488373s" begin="-1.744186046511628s" repeatCount="indefinite"></animate>
  </rect>
</g><g transform="rotate(90 50 50)">
  <rect x="47" y="24" rx="3" ry="6" width="6" height="12" fill="#fff0ea">
    <animate attributeName="opacity" values="1;0" keyTimes="0;1" dur="2.3255813953488373s" begin="-1.5503875968992247s" repeatCount="indefinite"></animate>
  </rect>
</g><g transform="rotate(120 50 50)">
  <rect x="47" y="24" rx="3" ry="6" width="6" height="12" fill="#fff0ea">
    <animate attributeName="opacity" values="1;0" keyTimes="0;1" dur="2.3255813953488373s" begin="-1.3565891472868217s" repeatCount="indefinite"></animate>
  </rect>
</g><g transform="rotate(150 50 50)">
  <rect x="47" y="24" rx="3" ry="6" width="6" height="12" fill="#fff0ea">
    <animate attributeName="opacity" values="1;0" keyTimes="0;1" dur="2.3255813953488373s" begin="-1.1627906976744187s" repeatCount="indefinite"></animate>
  </rect>
</g><g transform="rotate(180 50 50)">
  <rect x="47" y="24" rx="3" ry="6" width="6" height="12" fill="#fff0ea">
    <animate attributeName="opacity" values="1;0" keyTimes="0;1" dur="2.3255813953488373s" begin="-0.9689922480620154s" repeatCount="indefinite"></animate>
  </rect>
</g><g transform="rotate(210 50 50)">
  <rect x="47" y="24" rx="3" ry="6" width="6" height="12" fill="#fff0ea">
    <animate attributeName="opacity" values="1;0" keyTimes="0;1" dur="2.3255813953488373s" begin="-0.7751937984496123s" repeatCount="indefinite"></animate>
  </rect>
</g><g transform="rotate(240 50 50)">
  <rect x="47" y="24" rx="3" ry="6" width="6" height="12" fill="#fff0ea">
    <animate attributeName="opacity" values="1;0" keyTimes="0;1" dur="2.3255813953488373s" begin="-0.5813953488372093s" repeatCount="indefinite"></animate>
  </rect>
</g><g transform="rotate(270 50 50)">
  <rect x="47" y="24" rx="3" ry="6" width="6" height="12" fill="#fff0ea">
    <animate attributeName="opacity" values="1;0" keyTimes="0;1" dur="2.3255813953488373s" begin="-0.38759689922480617s" repeatCount="indefinite"></animate>
  </rect>
</g><g transform="rotate(300 50 50)">
  <rect x="47" y="24" rx="3" ry="6" width="6" height="12" fill="#fff0ea">
    <animate attributeName="opacity" values="1;0" keyTimes="0;1" dur="2.3255813953488373s" begin="-0.19379844961240308s" repeatCount="indefinite"></animate>
  </rect>
</g><g transform="rotate(330 50 50)">
  <rect x="47" y="24" rx="3" ry="6" width="6" height="12" fill="#fff0ea">
    <animate attributeName="opacity" values="1;0" keyTimes="0;1" dur="2.3255813953488373s" begin="0s" repeatCount="indefinite"></animate>
  </rect>
</g>
<!-- [ldio] generated by https://loading.io/ --></svg>