<svg height="32" viewBox="0 0 37 32" width="37" xmlns="http://www.w3.org/2000/svg"><g fill="none"><path d="m1 1v30h20.9432952l6.9803173-1.8859139 4.7519582-4.0931315 2.3244293-6.43539v-7.4388824l-3.4772712-5.97438884-6.0617929-3.39231664-5.8391912-.48661234z" fill="#fff"/><g fill="#0a0b09"><path d="m1.5029333 1.50468738v28.99062522h17.5916337c10.6172682 0 16.4024997-4.9605078 16.4024997-14.5319259 0-9.84306486-6.2641882-14.45869932-16.4024997-14.45869932zm17.5916337-1.50468738c15.5719934 0 17.905433 10.0013287 17.905433 15.9633867 0 10.3414778-6.358564 16.0366133-17.905433 16.0366133h-19.094567v-32z"/><path d="m4 28h6v-10h-6z"/><path d="m10 13.4975905c.0009533 1.4158115-.85117672 2.6927435-2.15894212 3.2352123s-2.81354241.2436104-3.81500981-.7571822c-1.00146739-1.0007926-1.30134067-2.5063679-.75975359-3.8144988s1.81794434-2.1611218 3.23375601-2.1611218c1.93204764 0 3.49864679 1.5655432 3.49994951 3.4975905"/></g><path d="m12 11.4577856v3.2369266h1.0122491c.7145287 0 1.3504593-.1986561 1.3504593-1.6359918 0-1.4373356-.7145287-1.5915863-1.3504593-1.5915863zm16.8890779-1.61028341h1.6362709v4.84721001h2.4270159c-.6645117-8.79462456-7.7026199-10.6947122-14.1214698-10.6947122h-6.8285131v5.84282793h1.0098673c1.8434841 0 2.9891119 1.22699387 2.9891119 3.19953257 0 2.0356413-1.1170466 3.2509495-2.9891119 3.2509495h-1.0098673v11.70669h6.8285131c10.4154474 0 14.0523987-4.7467134 14.1691051-11.70669h-4.1109221zm-4.5634569 3.60151911h1.1908812l-.5430418-1.8252994h-.0976523zm-2.5556312 2.8536372 1.9840082-6.45515631h2.3293637l1.9816264 6.45515631h-1.7029602l-.371555-1.2480281h-2.1435862l-.371555 1.2480281zm-.7859816-1.6079463v1.6056092h-4.0489963v-6.45048208h3.9179993v1.60560908h-2.2722014v.747882h2.1435863v1.6056091h-2.1435863v.8857727z" fill="#d50172"/></g></svg>