<svg height="39" viewBox="0 0 45 39" width="45" xmlns="http://www.w3.org/2000/svg"><g fill="none"><path d="m30.6931697 26.5h-3.6522221c-.2148366 0-.4296732.2105263-.5370915.4210526l-1.5038561 9.2631579c0 .2105263.1074183.3157895.3222549.3157895h1.9335293c.2148366 0 .3222549-.1052632.3222549-.3157895l.4296732-2.6315789c0-.2105263.2148366-.4210527.5370915-.4210527h1.1816012c2.4706208 0 3.8670587-1.1578947 4.1893136-3.4736842.2148366-.9473684 0-1.7894736-.4296732-2.3157894-.6445098-.5263158-1.6112745-.8421053-2.7928757-.8421053m.4296732 3.4736842c-.2148366 1.2631579-1.1816013 1.2631579-2.1483659 1.2631579h-.6445098l.4296732-2.4210526c0-.1052632.1074183-.2105263.3222548-.2105263h.2148366c.6445098 0 1.2890196 0 1.6112745.4210526.2148366.1052631.2148366.4210526.2148366.9473684" fill="#139ad6"/><g fill="#263b80" transform="translate(0 26.5)"><path d="m5.28372093.02597403h-3.37364341c-.19844961 0-.39689923.2077922-.49612403.41558441l-1.38914729 9.14285714c0 .20779221.09922481.31168832.29767442.31168832h1.5875969c.19844961 0 .39689922-.20779221.49612403-.41558442l.39689923-2.49350649c0-.20779221.19844961-.41558442.49612403-.41558442h1.09147286c2.28217055 0 3.57209303-1.14285714 3.86976745-3.42857143.19844961-.93506493 0-1.76623376-.39689923-2.28571428-.59534884-.51948052-1.38914729-.83116883-2.57984496-.83116883m.39689923 3.42857142c-.19844962 1.24675325-1.09147287 1.24675325-1.98449613 1.24675325h-.49612403l.39689922-2.38961039c0-.1038961.09922481-.20779221.29767442-.20779221h.19844962c.59534883 0 1.19069767 0 1.48837209.41558442.09922481.1038961.19844961.41558442.09922481.93506493"/><path d="m15.503876 3.35064935h-1.5875969c-.0992248 0-.2976744.1038961-.2976744.20779221l-.0992249.51948052-.0992248-.20779221c-.3968992-.51948052-1.0914728-.72727273-1.8852713-.72727273-1.78604649 0-3.37364339 1.45454546-3.67131781 3.42857143-.19844961 1.03896104.09922481 1.97402598.59534884 2.5974026s1.19069767.83116883 2.08372097.83116883c1.4883721 0 2.2821705-.93506494 2.2821705-.93506494l-.0992248.51948052c0 .20779221.0992248.31168832.2976744.31168832h1.4883721c.1984496 0 .3968992-.20779221.496124-.41558442l.8930233-5.81818182c-.0992248-.1038961-.2976744-.31168831-.3968992-.31168831m-2.2821706 3.32467533c-.1984496.93506493-.8930232 1.66233766-1.8852713 1.66233766-.496124 0-.8930232-.20779221-1.0914729-.41558442-.1984496-.31168831-.29767438-.72727273-.29767438-1.24675324.09922478-.93506494.89302328-1.66233767 1.78604648-1.66233767.4961241 0 .7937985.20779221 1.0914729.41558442.2976744.31168831.3968992.83116883.3968992 1.24675325"/></g><path d="m40.6079703 29.7121212h-1.568119c-.0980074 0-.2940223.1060606-.2940223.2121212l-.0980074.5303031-.0980074-.2121213c-.3920297-.530303-1.0780818-.7424242-1.8621412-.7424242-1.7641338 0-3.3322527 1.4848485-3.626275 3.5-.1960149 1.0606061.0980074 2.0151515.5880445 2.6515152.4900372.6363636 1.1760892.8484848 2.0581561.8484848 1.4701115 0 2.254171-.9545455 2.254171-.9545455l-.0980074.5303031c0 .2121212.0980074.3181818.2940223.3181818h1.4701114c.1960149 0 .3920298-.2121212.4900372-.4242424l.8820669-5.939394c-.0980074-.1060606-.1960149-.3181818-.3920297-.3181818m-2.254171 3.3939394c-.1960148.9545455-.8820669 1.6969697-1.8621412 1.6969697-.4900372 0-.8820669-.2121212-1.0780818-.4242424-.1960148-.3181818-.2940223-.7424243-.2940223-1.2727273.0980075-.9545454.8820669-1.6969697 1.7641338-1.6969697.4900372 0 .7840595.2121212 1.0780818.4242424.3920297.3181819.4900372.8484849.3920297 1.2727273" fill="#139ad6"/><path d="m24.7455222 29.5h-1.7100504c-.2011824 0-.3017736.1034483-.4023648.2068966l-2.2130063 3.5172413-1.005912-3.3103448c-.1005912-.2068965-.2011824-.3103448-.502956-.3103448h-1.6094591c-.2011824 0-.3017736.2068965-.3017736.4137931l1.8106415 5.4827586-1.7100503 2.4827586c-.1005912.2068966 0 .5172414.2011824.5172414h1.6094591c.2011824 0 .3017736-.1034483.4023648-.2068966l5.5325159-8.1724137c.3017736-.3103449.1005912-.6206897-.1005912-.6206897" fill="#263b80"/><path d="m42.5555556 26.7507859-1.5555556 9.4347233c0 .2096605.1111111.3144908.3333333.3144908h1.5555556c.2222222 0 .4444444-.2096605.5555555-.419321l1.5555556-9.2250628c0-.2096605-.1111111-.3144908-.3333333-.3144908h-1.7777778c-.1111111-.1048302-.2222222 0-.3333333.2096605" fill="#139ad6"/><path d="m30.7294266 2.44366197c-1.0791825-1.29577465-3.0833785-1.94366197-5.8584192-1.94366197h-7.7084463c-.4625069 0-.9250136.48591549-1.0791825.97183099l-3.0833786 21.21830991c0 .4859155.3083379.8098591.6166757.8098591h4.7792368l1.2333514-7.9366197v.3239437c.154169-.4859156.6166757-.9718311 1.0791825-.9718311h2.3125338c4.4708989 0 7.8626154-1.9436619 8.9417978-7.28873233 0-.16197184 0-.32394367 0-.4859155-.1541689 0-.1541689 0 0 0 .154169-2.1056338-.1541689-3.40140845-1.2333514-4.6971831" fill="#263b80"/><path d="m32.1264993 7.5v.47899159c-1.0987278 5.42857141-4.551872 7.18487391-9.103744 7.18487391h-2.3544165c-.4708833 0-.9417666.4789916-1.0987278.9579833l-1.569611 9.7394957c0 .3193278.1569611.6386555.6278444.6386555h4.0809887c.4708833 0 .9417666-.3193277.9417666-.7983193v-.1596639l.7848055-4.9495799v-.3193277c0-.4789915.4708833-.7983193.9417666-.7983193h.6278444c3.9240276 0 7.0632497-1.5966387 7.8480551-6.3865546.3139222-1.9159664.1569612-3.67226892-.7848054-4.78991597-.1569612-.31932774-.4708833-.63865546-.9417666-.79831933" fill="#139ad6"/><path d="m31.5555556 7c-.1604939 0-.3209877-.16666666-.4814814-.16666666-.1604939 0-.3209877 0-.4814815-.16666668-.6419754-.16666666-1.2839506-.16666666-2.0864198-.16666666h-6.2592593c-.1604938 0-.3209877 0-.4814815.16666666-.3209877.16666668-.4814814.5-.4814814.83333334l-1.2839507 8.6666666v.3333334c.1604938-.5.6419754-1 1.1234569-1h2.4074073c4.654321 0 8.1851852-2 9.308642-7.5 0-.16666666 0-.33333334.1604938-.5-.3209875-.16666666-.4814814-.33333334-.8024691-.33333334-.4814815-.16666666-.4814815-.16666666-.6419753-.16666666" fill="#232c65"/></g></svg>