<svg height="26" viewBox="0 0 82 26" width="82" xmlns="http://www.w3.org/2000/svg"><g fill="none"><path d="m33.7380965 0-4.0966874 25.9478889h6.5480413l4.0941694-25.9478889zm19.751276 10.5697169c-2.2882474-1.15014514-3.6910194-1.92640054-3.6910194-3.10274357.0279771-1.06955807 1.1862292-2.16531406 3.7727125-2.16531406 2.127379-.05438913 3.6910194.45447676 4.8772486.96077981l.5942337.26995236.8902314-5.42894694c-1.2933815-.50886589-3.3441032-1.06955808-5.8771502-1.06955808-6.4663481 0-11.0196218 3.42195937-11.0478787 8.31612727-.0534363 3.61160941 3.2598922 5.61574941 5.7395029 6.81800561 2.533047 1.233295 3.3953014 2.0329007 3.3953014 3.1286567-.0279771 1.6823613-2.0482038 2.4586167-3.9333011 2.4586167-2.6119424 0-4.0149942-.3998029-6.1448911-1.3372324l-.8622544-.3998028-.9156906 5.6419473c1.5381812.6959531 4.3669462 1.3084716 7.3031433 1.3397952 6.8720161 0 11.3435966-3.3701331 11.3998306-8.5860796.0223817-2.8612672-1.7247885-5.0527792-5.5000189-6.8442035zm23.2305086-10.48941462h-5.066094c-1.5611224 0-2.7473516.4570396-3.4232784 2.08757462l-9.7265201 23.780012h6.8720161l1.8926511-5.1484584h7.688388l.9819964 5.1692459h6.0609598zm-7.545425 15.52341492c.1326115.0130836 2.6376814-8.40441815 2.6376814-8.40441815l1.9947676 8.40441815s-3.3390674 0-4.632449 0zm-45.0045292-15.6037172-6.4154298 17.6291988-.698868-3.4766332c-1.1862292-4.0114123-4.9052257-8.37051642-9.0556291-10.53583048l5.8746323 22.30524068h6.9282501l10.2952946-25.9191282h-6.9282501z" fill="#2394bc"/><path d="m14.7535481 3.4940644c-.5078317-2.06892445-2.12738-3.46428713-4.3269421-3.4940644h-10.32032225l-.10628375.50204471c8.05056753 2.07964426 14.8078267 8.47877873 17 14.49795529z" fill="#efc75e"/></g></svg>