<?xml version="1.0" standalone="no"?>
<!DOCTYPE svg PUBLIC "-//W3C//DTD SVG 20010904//EN"
  "http://www.w3.org/TR/2001/REC-SVG-20010904/DTD/svg10.dtd">
<svg width="34" height="22">
  <circle cx="0" cy="0" r="1" fill="white"/>
  <circle cx="1" cy="0" r="1" fill="white"/>
  <circle cx="2" cy="0" r="1" fill="white"/>
  <circle cx="3" cy="0" r="1" fill="white"/>
  <circle cx="4" cy="0" r="1" fill="white"/>
  <circle cx="5" cy="0" r="1" fill="white"/>
  <circle cx="6" cy="0" r="1" fill="white"/>
  <circle cx="7" cy="0" r="1" fill="white"/>
  <circle cx="8" cy="0" r="1" fill="white"/>
  <circle cx="9" cy="0" r="1" fill="white"/>
  <circle cx="10" cy="0" r="1" fill="white"/>
  <circle cx="11" cy="0" r="1" fill="white"/>
  <circle cx="12" cy="0" r="1" fill="white"/>
  <circle cx="13" cy="0" r="1" fill="white"/>
  <circle cx="14" cy="0" r="1" fill="white"/>
  <circle cx="15" cy="0" r="1" fill="srgba(18.822%,18.822%,18.822%,1)"/>
  <circle cx="16" cy="0" r="1" fill="srgba(1,1,1,1)"/>
  <circle cx="17" cy="0" r="1" fill="srgba(1,1,1,1)"/>
  <circle cx="18" cy="0" r="1" fill="srgba(1,1,1,1)"/>
  <circle cx="19" cy="0" r="1" fill="srgba(1,1,1,1)"/>
  <circle cx="20" cy="0" r="1" fill="srgba(1,1,1,1)"/>
  <circle cx="21" cy="0" r="1" fill="srgba(1,1,1,1)"/>
  <circle cx="22" cy="0" r="1" fill="srgba(1,1,1,1)"/>
  <circle cx="23" cy="0" r="1" fill="srgba(1,1,1,1)"/>
  <circle cx="24" cy="0" r="1" fill="srgba(1,1,1,1)"/>
  <circle cx="25" cy="0" r="1" fill="srgba(1,1,1,1)"/>
  <circle cx="26" cy="0" r="1" fill="srgba(1,1,1,1)"/>
  <circle cx="27" cy="0" r="1" fill="srgba(1,1,1,1)"/>
  <circle cx="28" cy="0" r="1" fill="srgba(1,1,1,1)"/>
  <circle cx="29" cy="0" r="1" fill="srgba(1,1,1,1)"/>
  <circle cx="30" cy="0" r="1" fill="grey4"/>
  <circle cx="31" cy="0" r="1" fill="srgba(177,177,177,1)"/>
  <circle cx="32" cy="0" r="1" fill="srgba(97.2534%,97.2534%,97.2534%,1)"/>
  <circle cx="33" cy="0" r="1" fill="white"/>
  <circle cx="0" cy="1" r="1" fill="srgba(14,14,14,1)"/>
  <circle cx="1" cy="1" r="1" fill="srgba(14,14,14,1)"/>
  <circle cx="2" cy="1" r="1" fill="srgba(14,14,14,1)"/>
  <circle cx="3" cy="1" r="1" fill="srgba(14,14,14,1)"/>
  <circle cx="4" cy="1" r="1" fill="srgba(14,14,14,1)"/>
  <circle cx="5" cy="1" r="1" fill="srgba(14,14,14,1)"/>
  <circle cx="6" cy="1" r="1" fill="srgba(14,14,14,1)"/>
  <circle cx="7" cy="1" r="1" fill="srgba(14,14,14,1)"/>
  <circle cx="8" cy="1" r="1" fill="srgba(14,14,14,1)"/>
  <circle cx="9" cy="1" r="1" fill="srgba(14,14,14,1)"/>
  <circle cx="10" cy="1" r="1" fill="srgba(14,14,14,1)"/>
  <circle cx="11" cy="1" r="1" fill="srgba(14,14,14,1)"/>
  <circle cx="12" cy="1" r="1" fill="srgba(14,14,14,1)"/>
  <circle cx="13" cy="1" r="1" fill="srgba(14,14,14,1)"/>
  <circle cx="14" cy="1" r="1" fill="srgba(14,14,14,1)"/>
  <circle cx="15" cy="1" r="1" fill="grey1"/>
  <circle cx="16" cy="1" r="1" fill="srgba(1,1,1,1)"/>
  <circle cx="17" cy="1" r="1" fill="srgba(1,1,1,1)"/>
  <circle cx="18" cy="1" r="1" fill="srgba(1,1,1,1)"/>
  <circle cx="19" cy="1" r="1" fill="srgba(1,1,1,1)"/>
  <circle cx="20" cy="1" r="1" fill="srgba(1,1,1,1)"/>
  <circle cx="21" cy="1" r="1" fill="srgba(1,1,1,1)"/>
  <circle cx="22" cy="1" r="1" fill="srgba(1,1,1,1)"/>
  <circle cx="23" cy="1" r="1" fill="srgba(1,1,1,1)"/>
  <circle cx="24" cy="1" r="1" fill="srgba(1,1,1,1)"/>
  <circle cx="25" cy="1" r="1" fill="srgba(1,1,1,1)"/>
  <circle cx="26" cy="1" r="1" fill="srgba(1,1,1,1)"/>
  <circle cx="27" cy="1" r="1" fill="srgba(1,1,1,1)"/>
  <circle cx="28" cy="1" r="1" fill="srgba(1,1,1,1)"/>
  <circle cx="29" cy="1" r="1" fill="srgba(1,1,1,1)"/>
  <circle cx="30" cy="1" r="1" fill="srgba(1,1,1,1)"/>
  <circle cx="31" cy="1" r="1" fill="grey4"/>
  <circle cx="32" cy="1" r="1" fill="srgba(14,14,14,1)"/>
  <circle cx="33" cy="1" r="1" fill="srgba(23.5279%,23.5279%,23.5279%,1)"/>
  <circle cx="0" cy="2" r="1" fill="srgba(1,1,1,1)"/>
  <circle cx="1" cy="2" r="1" fill="srgba(1,1,1,1)"/>
  <circle cx="2" cy="2" r="1" fill="srgba(1,1,1,1)"/>
  <circle cx="3" cy="2" r="1" fill="srgba(1,1,1,1)"/>
  <circle cx="4" cy="2" r="1" fill="srgba(1,1,1,1)"/>
  <circle cx="5" cy="2" r="1" fill="srgba(1,1,1,1)"/>
  <circle cx="6" cy="2" r="1" fill="srgba(1,1,1,1)"/>
  <circle cx="7" cy="2" r="1" fill="srgba(1,1,1,1)"/>
  <circle cx="8" cy="2" r="1" fill="srgba(1,1,1,1)"/>
  <circle cx="9" cy="2" r="1" fill="srgba(1,1,1,1)"/>
  <circle cx="10" cy="2" r="1" fill="srgba(1,1,1,1)"/>
  <circle cx="11" cy="2" r="1" fill="srgba(1,1,1,1)"/>
  <circle cx="12" cy="2" r="1" fill="srgba(1,1,1,1)"/>
  <circle cx="13" cy="2" r="1" fill="srgba(1,1,1,1)"/>
  <circle cx="14" cy="2" r="1" fill="srgba(1,1,1,1)"/>
  <circle cx="15" cy="2" r="1" fill="srgba(1,1,1,1)"/>
  <circle cx="16" cy="2" r="1" fill="srgba(1,1,1,1)"/>
  <circle cx="17" cy="2" r="1" fill="srgba(1,1,1,1)"/>
  <circle cx="18" cy="2" r="1" fill="srgba(1,1,1,1)"/>
  <circle cx="19" cy="2" r="1" fill="srgba(1,1,1,1)"/>
  <circle cx="20" cy="2" r="1" fill="srgba(1,1,1,1)"/>
  <circle cx="21" cy="2" r="1" fill="srgba(1,1,1,1)"/>
  <circle cx="22" cy="2" r="1" fill="srgba(1,1,1,1)"/>
  <circle cx="23" cy="2" r="1" fill="srgba(1,1,1,1)"/>
  <circle cx="24" cy="2" r="1" fill="srgba(1,1,1,1)"/>
  <circle cx="25" cy="2" r="1" fill="srgba(1,1,1,1)"/>
  <circle cx="26" cy="2" r="1" fill="srgba(1,1,1,1)"/>
  <circle cx="27" cy="2" r="1" fill="srgba(1,1,1,1)"/>
  <circle cx="28" cy="2" r="1" fill="srgba(1,1,1,1)"/>
  <circle cx="29" cy="2" r="1" fill="srgba(1,1,1,1)"/>
  <circle cx="30" cy="2" r="1" fill="srgba(1,1,1,1)"/>
  <circle cx="31" cy="2" r="1" fill="srgba(1,1,1,1)"/>
  <circle cx="32" cy="2" r="1" fill="srgba(1,1,1,1)"/>
  <circle cx="33" cy="2" r="1" fill="srgba(14,14,14,1)"/>
  <circle cx="0" cy="3" r="1" fill="srgba(1,1,1,1)"/>
  <circle cx="1" cy="3" r="1" fill="srgba(1,1,1,1)"/>
  <circle cx="2" cy="3" r="1" fill="srgba(1,1,1,1)"/>
  <circle cx="3" cy="3" r="1" fill="srgba(1,1,1,1)"/>
  <circle cx="4" cy="3" r="1" fill="srgba(1,1,1,1)"/>
  <circle cx="5" cy="3" r="1" fill="srgba(1,1,1,1)"/>
  <circle cx="6" cy="3" r="1" fill="srgba(1,1,1,1)"/>
  <circle cx="7" cy="3" r="1" fill="srgba(1,1,1,1)"/>
  <circle cx="8" cy="3" r="1" fill="srgba(1,1,1,1)"/>
  <circle cx="9" cy="3" r="1" fill="srgba(1,1,1,1)"/>
  <circle cx="10" cy="3" r="1" fill="srgba(1,1,1,1)"/>
  <circle cx="11" cy="3" r="1" fill="srgba(1,1,1,1)"/>
  <circle cx="12" cy="3" r="1" fill="srgba(1,1,1,1)"/>
  <circle cx="13" cy="3" r="1" fill="srgba(1,1,1,1)"/>
  <circle cx="14" cy="3" r="1" fill="srgba(1,1,1,1)"/>
  <circle cx="15" cy="3" r="1" fill="srgba(1,1,1,1)"/>
  <circle cx="16" cy="3" r="1" fill="srgba(1,1,1,1)"/>
  <circle cx="17" cy="3" r="1" fill="srgba(1,1,1,1)"/>
  <circle cx="18" cy="3" r="1" fill="srgba(1,1,1,1)"/>
  <circle cx="19" cy="3" r="1" fill="srgba(1,1,1,1)"/>
  <circle cx="20" cy="3" r="1" fill="srgba(1,1,1,1)"/>
  <circle cx="21" cy="3" r="1" fill="srgba(1,1,1,1)"/>
  <circle cx="22" cy="3" r="1" fill="srgba(1,1,1,1)"/>
  <circle cx="23" cy="3" r="1" fill="srgba(1,1,1,1)"/>
  <circle cx="24" cy="3" r="1" fill="srgba(1,1,1,1)"/>
  <circle cx="25" cy="3" r="1" fill="srgba(1,1,1,1)"/>
  <circle cx="26" cy="3" r="1" fill="srgba(1,1,1,1)"/>
  <circle cx="27" cy="3" r="1" fill="srgba(1,1,1,1)"/>
  <circle cx="28" cy="3" r="1" fill="srgba(1,1,1,1)"/>
  <circle cx="29" cy="3" r="1" fill="srgba(1,1,1,1)"/>
  <circle cx="30" cy="3" r="1" fill="srgba(1,1,1,1)"/>
  <circle cx="31" cy="3" r="1" fill="srgba(1,1,1,1)"/>
  <circle cx="32" cy="3" r="1" fill="srgba(1,1,1,1)"/>
  <circle cx="33" cy="3" r="1" fill="srgba(14,14,14,1)"/>
  <circle cx="0" cy="4" r="1" fill="srgba(1,1,1,1)"/>
  <circle cx="1" cy="4" r="1" fill="srgba(1,1,1,1)"/>
  <circle cx="2" cy="4" r="1" fill="srgba(1,1,1,1)"/>
  <circle cx="3" cy="4" r="1" fill="srgba(1,1,1,1)"/>
  <circle cx="4" cy="4" r="1" fill="srgba(1,1,1,1)"/>
  <circle cx="5" cy="4" r="1" fill="srgba(1,1,1,1)"/>
  <circle cx="6" cy="4" r="1" fill="srgba(1,1,1,1)"/>
  <circle cx="7" cy="4" r="1" fill="srgba(1,1,1,1)"/>
  <circle cx="8" cy="4" r="1" fill="srgba(1,1,1,1)"/>
  <circle cx="9" cy="4" r="1" fill="srgba(1,1,1,1)"/>
  <circle cx="10" cy="4" r="1" fill="srgba(1,1,1,1)"/>
  <circle cx="11" cy="4" r="1" fill="srgba(1,1,1,1)"/>
  <circle cx="12" cy="4" r="1" fill="srgba(1,1,1,1)"/>
  <circle cx="13" cy="4" r="1" fill="srgba(1,1,1,1)"/>
  <circle cx="14" cy="4" r="1" fill="srgba(1,1,1,1)"/>
  <circle cx="15" cy="4" r="1" fill="srgba(1,1,1,1)"/>
  <circle cx="16" cy="4" r="1" fill="srgba(1,1,1,1)"/>
  <circle cx="17" cy="4" r="1" fill="srgba(1,1,1,1)"/>
  <circle cx="18" cy="4" r="1" fill="srgba(1,1,1,1)"/>
  <circle cx="19" cy="4" r="1" fill="srgba(1,1,1,1)"/>
  <circle cx="20" cy="4" r="1" fill="srgba(1,1,1,1)"/>
  <circle cx="21" cy="4" r="1" fill="srgba(1,1,1,1)"/>
  <circle cx="22" cy="4" r="1" fill="srgba(1,1,1,1)"/>
  <circle cx="23" cy="4" r="1" fill="srgba(1,1,1,1)"/>
  <circle cx="24" cy="4" r="1" fill="srgba(1,1,1,1)"/>
  <circle cx="25" cy="4" r="1" fill="srgba(1,1,1,1)"/>
  <circle cx="26" cy="4" r="1" fill="srgba(1,1,1,1)"/>
  <circle cx="27" cy="4" r="1" fill="srgba(1,1,1,1)"/>
  <circle cx="28" cy="4" r="1" fill="srgba(1,1,1,1)"/>
  <circle cx="29" cy="4" r="1" fill="srgba(1,1,1,1)"/>
  <circle cx="30" cy="4" r="1" fill="srgba(1,1,1,1)"/>
  <circle cx="31" cy="4" r="1" fill="srgba(1,1,1,1)"/>
  <circle cx="32" cy="4" r="1" fill="srgba(1,1,1,1)"/>
  <circle cx="33" cy="4" r="1" fill="srgba(14,14,14,1)"/>
  <circle cx="0" cy="5" r="1" fill="srgba(1,1,1,1)"/>
  <circle cx="1" cy="5" r="1" fill="srgba(1,1,1,1)"/>
  <circle cx="2" cy="5" r="1" fill="srgba(1,1,1,1)"/>
  <circle cx="3" cy="5" r="1" fill="srgba(1,1,1,1)"/>
  <circle cx="4" cy="5" r="1" fill="srgba(1,1,1,1)"/>
  <circle cx="5" cy="5" r="1" fill="srgba(1,1,1,1)"/>
  <circle cx="6" cy="5" r="1" fill="srgba(1,1,1,1)"/>
  <circle cx="7" cy="5" r="1" fill="srgba(1,1,1,1)"/>
  <circle cx="8" cy="5" r="1" fill="srgba(1,1,1,1)"/>
  <circle cx="9" cy="5" r="1" fill="srgba(1,1,1,1)"/>
  <circle cx="10" cy="5" r="1" fill="srgba(1,1,1,1)"/>
  <circle cx="11" cy="5" r="1" fill="srgba(1,1,1,1)"/>
  <circle cx="12" cy="5" r="1" fill="srgba(1,1,1,1)"/>
  <circle cx="13" cy="5" r="1" fill="srgba(1,1,1,1)"/>
  <circle cx="14" cy="5" r="1" fill="srgba(1,1,1,1)"/>
  <circle cx="15" cy="5" r="1" fill="srgba(1,1,1,1)"/>
  <circle cx="16" cy="5" r="1" fill="srgba(1,1,1,1)"/>
  <circle cx="17" cy="5" r="1" fill="srgba(1,1,1,1)"/>
  <circle cx="18" cy="5" r="1" fill="srgba(1,1,1,1)"/>
  <circle cx="19" cy="5" r="1" fill="srgba(1,1,1,1)"/>
  <circle cx="20" cy="5" r="1" fill="srgba(1,1,1,1)"/>
  <circle cx="21" cy="5" r="1" fill="srgba(1,1,1,1)"/>
  <circle cx="22" cy="5" r="1" fill="srgba(1,1,1,1)"/>
  <circle cx="23" cy="5" r="1" fill="srgba(1,1,1,1)"/>
  <circle cx="24" cy="5" r="1" fill="srgba(1,1,1,1)"/>
  <circle cx="25" cy="5" r="1" fill="srgba(1,1,1,1)"/>
  <circle cx="26" cy="5" r="1" fill="srgba(1,1,1,1)"/>
  <circle cx="27" cy="5" r="1" fill="srgba(1,1,1,1)"/>
  <circle cx="28" cy="5" r="1" fill="srgba(1,1,1,1)"/>
  <circle cx="29" cy="5" r="1" fill="srgba(1,1,1,1)"/>
  <circle cx="30" cy="5" r="1" fill="srgba(1,1,1,1)"/>
  <circle cx="31" cy="5" r="1" fill="srgba(1,1,1,1)"/>
  <circle cx="32" cy="5" r="1" fill="srgba(1,1,1,1)"/>
  <circle cx="33" cy="5" r="1" fill="srgba(14,14,14,1)"/>
  <circle cx="0" cy="6" r="1" fill="srgba(1,1,1,1)"/>
  <circle cx="1" cy="6" r="1" fill="srgba(1,1,1,1)"/>
  <circle cx="2" cy="6" r="1" fill="srgba(1,1,1,1)"/>
  <circle cx="3" cy="6" r="1" fill="srgba(1,1,1,1)"/>
  <circle cx="4" cy="6" r="1" fill="srgba(1,1,1,1)"/>
  <circle cx="5" cy="6" r="1" fill="srgba(1,1,1,1)"/>
  <circle cx="6" cy="6" r="1" fill="srgba(1,1,1,1)"/>
  <circle cx="7" cy="6" r="1" fill="srgba(1,1,1,1)"/>
  <circle cx="8" cy="6" r="1" fill="srgba(1,1,1,1)"/>
  <circle cx="9" cy="6" r="1" fill="srgba(1,1,1,1)"/>
  <circle cx="10" cy="6" r="1" fill="srgba(1,1,1,1)"/>
  <circle cx="11" cy="6" r="1" fill="srgba(1,1,1,1)"/>
  <circle cx="12" cy="6" r="1" fill="srgba(1,1,1,1)"/>
  <circle cx="13" cy="6" r="1" fill="srgba(1,1,1,1)"/>
  <circle cx="14" cy="6" r="1" fill="srgba(1,1,1,1)"/>
  <circle cx="15" cy="6" r="1" fill="srgba(1,1,1,1)"/>
  <circle cx="16" cy="6" r="1" fill="srgba(1,1,1,1)"/>
  <circle cx="17" cy="6" r="1" fill="srgba(1,1,1,1)"/>
  <circle cx="18" cy="6" r="1" fill="srgba(1,1,1,1)"/>
  <circle cx="19" cy="6" r="1" fill="srgba(1,1,1,1)"/>
  <circle cx="20" cy="6" r="1" fill="srgba(1,1,1,1)"/>
  <circle cx="21" cy="6" r="1" fill="srgba(1,1,1,1)"/>
  <circle cx="22" cy="6" r="1" fill="srgba(1,1,1,1)"/>
  <circle cx="23" cy="6" r="1" fill="srgba(1,1,1,1)"/>
  <circle cx="24" cy="6" r="1" fill="srgba(1,1,1,1)"/>
  <circle cx="25" cy="6" r="1" fill="srgba(1,1,1,1)"/>
  <circle cx="26" cy="6" r="1" fill="srgba(1,1,1,1)"/>
  <circle cx="27" cy="6" r="1" fill="srgba(1,1,1,1)"/>
  <circle cx="28" cy="6" r="1" fill="srgba(1,1,1,1)"/>
  <circle cx="29" cy="6" r="1" fill="srgba(1,1,1,1)"/>
  <circle cx="30" cy="6" r="1" fill="srgba(1,1,1,1)"/>
  <circle cx="31" cy="6" r="1" fill="srgba(1,1,1,1)"/>
  <circle cx="32" cy="6" r="1" fill="srgba(1,1,1,1)"/>
  <circle cx="33" cy="6" r="1" fill="srgba(14,14,14,1)"/>
  <circle cx="0" cy="7" r="1" fill="srgba(1,1,1,1)"/>
  <circle cx="1" cy="7" r="1" fill="srgba(1,1,1,1)"/>
  <circle cx="2" cy="7" r="1" fill="srgba(1,1,1,1)"/>
  <circle cx="3" cy="7" r="1" fill="srgba(1,1,1,1)"/>
  <circle cx="4" cy="7" r="1" fill="srgba(1,1,1,1)"/>
  <circle cx="5" cy="7" r="1" fill="srgba(1,1,1,1)"/>
  <circle cx="6" cy="7" r="1" fill="srgba(1,1,1,1)"/>
  <circle cx="7" cy="7" r="1" fill="srgba(1,1,1,1)"/>
  <circle cx="8" cy="7" r="1" fill="srgba(1,1,1,1)"/>
  <circle cx="9" cy="7" r="1" fill="srgba(1,1,1,1)"/>
  <circle cx="10" cy="7" r="1" fill="srgba(1,1,1,1)"/>
  <circle cx="11" cy="7" r="1" fill="srgba(1,1,1,1)"/>
  <circle cx="12" cy="7" r="1" fill="srgba(1,1,1,1)"/>
  <circle cx="13" cy="7" r="1" fill="srgba(1,1,1,1)"/>
  <circle cx="14" cy="7" r="1" fill="srgba(1,1,1,1)"/>
  <circle cx="15" cy="7" r="1" fill="srgba(1,1,1,1)"/>
  <circle cx="16" cy="7" r="1" fill="srgba(1,1,1,1)"/>
  <circle cx="17" cy="7" r="1" fill="srgba(1,1,1,1)"/>
  <circle cx="18" cy="7" r="1" fill="srgba(1,1,1,1)"/>
  <circle cx="19" cy="7" r="1" fill="srgba(1,1,1,1)"/>
  <circle cx="20" cy="7" r="1" fill="srgba(1,1,1,1)"/>
  <circle cx="21" cy="7" r="1" fill="srgba(1,1,1,1)"/>
  <circle cx="22" cy="7" r="1" fill="srgba(1,1,1,1)"/>
  <circle cx="23" cy="7" r="1" fill="srgba(1,1,1,1)"/>
  <circle cx="24" cy="7" r="1" fill="srgba(1,1,1,1)"/>
  <circle cx="25" cy="7" r="1" fill="srgba(1,1,1,1)"/>
  <circle cx="26" cy="7" r="1" fill="srgba(1,1,1,1)"/>
  <circle cx="27" cy="7" r="1" fill="srgba(1,1,1,1)"/>
  <circle cx="28" cy="7" r="1" fill="srgba(1,1,1,1)"/>
  <circle cx="29" cy="7" r="1" fill="srgba(1,1,1,1)"/>
  <circle cx="30" cy="7" r="1" fill="srgba(1,1,1,1)"/>
  <circle cx="31" cy="7" r="1" fill="srgba(1,1,1,1)"/>
  <circle cx="32" cy="7" r="1" fill="srgba(1,1,1,1)"/>
  <circle cx="33" cy="7" r="1" fill="srgba(14,14,14,1)"/>
  <circle cx="0" cy="8" r="1" fill="srgba(1,1,1,1)"/>
  <circle cx="1" cy="8" r="1" fill="srgba(1,1,1,1)"/>
  <circle cx="2" cy="8" r="1" fill="srgba(1,1,1,1)"/>
  <circle cx="3" cy="8" r="1" fill="srgba(1,1,1,1)"/>
  <circle cx="4" cy="8" r="1" fill="srgba(1,1,1,1)"/>
  <circle cx="5" cy="8" r="1" fill="srgba(1,1,1,1)"/>
  <circle cx="6" cy="8" r="1" fill="srgba(1,1,1,1)"/>
  <circle cx="7" cy="8" r="1" fill="srgba(1,1,1,1)"/>
  <circle cx="8" cy="8" r="1" fill="srgba(1,1,1,1)"/>
  <circle cx="9" cy="8" r="1" fill="srgba(1,1,1,1)"/>
  <circle cx="10" cy="8" r="1" fill="srgba(1,1,1,1)"/>
  <circle cx="11" cy="8" r="1" fill="srgba(1,1,1,1)"/>
  <circle cx="12" cy="8" r="1" fill="srgba(1,1,1,1)"/>
  <circle cx="13" cy="8" r="1" fill="srgba(1,1,1,1)"/>
  <circle cx="14" cy="8" r="1" fill="srgba(1,1,1,1)"/>
  <circle cx="15" cy="8" r="1" fill="srgba(1,1,1,1)"/>
  <circle cx="16" cy="8" r="1" fill="srgba(1,1,1,1)"/>
  <circle cx="17" cy="8" r="1" fill="srgba(1,1,1,1)"/>
  <circle cx="18" cy="8" r="1" fill="srgba(1,1,1,1)"/>
  <circle cx="19" cy="8" r="1" fill="srgba(1,1,1,1)"/>
  <circle cx="20" cy="8" r="1" fill="srgba(1,1,1,1)"/>
  <circle cx="21" cy="8" r="1" fill="srgba(1,1,1,1)"/>
  <circle cx="22" cy="8" r="1" fill="srgba(1,1,1,1)"/>
  <circle cx="23" cy="8" r="1" fill="srgba(1,1,1,1)"/>
  <circle cx="24" cy="8" r="1" fill="srgba(1,1,1,1)"/>
  <circle cx="25" cy="8" r="1" fill="srgba(1,1,1,1)"/>
  <circle cx="26" cy="8" r="1" fill="srgba(1,1,1,1)"/>
  <circle cx="27" cy="8" r="1" fill="srgba(1,1,1,1)"/>
  <circle cx="28" cy="8" r="1" fill="srgba(1,1,1,1)"/>
  <circle cx="29" cy="8" r="1" fill="srgba(1,1,1,1)"/>
  <circle cx="30" cy="8" r="1" fill="srgba(1,1,1,1)"/>
  <circle cx="31" cy="8" r="1" fill="srgba(1,1,1,1)"/>
  <circle cx="32" cy="8" r="1" fill="srgba(1,1,1,1)"/>
  <circle cx="33" cy="8" r="1" fill="srgba(14,14,14,1)"/>
  <circle cx="0" cy="9" r="1" fill="srgba(1,1,1,1)"/>
  <circle cx="1" cy="9" r="1" fill="srgba(1,1,1,1)"/>
  <circle cx="2" cy="9" r="1" fill="srgba(1,1,1,1)"/>
  <circle cx="3" cy="9" r="1" fill="srgba(1,1,1,1)"/>
  <circle cx="4" cy="9" r="1" fill="srgba(1,1,1,1)"/>
  <circle cx="5" cy="9" r="1" fill="srgba(1,1,1,1)"/>
  <circle cx="6" cy="9" r="1" fill="srgba(1,1,1,1)"/>
  <circle cx="7" cy="9" r="1" fill="srgba(1,1,1,1)"/>
  <circle cx="8" cy="9" r="1" fill="srgba(1,1,1,1)"/>
  <circle cx="9" cy="9" r="1" fill="srgba(1,1,1,1)"/>
  <circle cx="10" cy="9" r="1" fill="srgba(1,1,1,1)"/>
  <circle cx="11" cy="9" r="1" fill="srgba(1,1,1,1)"/>
  <circle cx="12" cy="9" r="1" fill="srgba(1,1,1,1)"/>
  <circle cx="13" cy="9" r="1" fill="srgba(1,1,1,1)"/>
  <circle cx="14" cy="9" r="1" fill="srgba(1,1,1,1)"/>
  <circle cx="15" cy="9" r="1" fill="srgba(1,1,1,1)"/>
  <circle cx="16" cy="9" r="1" fill="srgba(1,1,1,1)"/>
  <circle cx="17" cy="9" r="1" fill="srgba(1,1,1,1)"/>
  <circle cx="18" cy="9" r="1" fill="srgba(1,1,1,1)"/>
  <circle cx="19" cy="9" r="1" fill="srgba(1,1,1,1)"/>
  <circle cx="20" cy="9" r="1" fill="srgba(1,1,1,1)"/>
  <circle cx="21" cy="9" r="1" fill="srgba(1,1,1,1)"/>
  <circle cx="22" cy="9" r="1" fill="srgba(1,1,1,1)"/>
  <circle cx="23" cy="9" r="1" fill="srgba(1,1,1,1)"/>
  <circle cx="24" cy="9" r="1" fill="srgba(1,1,1,1)"/>
  <circle cx="25" cy="9" r="1" fill="srgba(1,1,1,1)"/>
  <circle cx="26" cy="9" r="1" fill="srgba(1,1,1,1)"/>
  <circle cx="27" cy="9" r="1" fill="srgba(1,1,1,1)"/>
  <circle cx="28" cy="9" r="1" fill="srgba(1,1,1,1)"/>
  <circle cx="29" cy="9" r="1" fill="srgba(1,1,1,1)"/>
  <circle cx="30" cy="9" r="1" fill="srgba(1,1,1,1)"/>
  <circle cx="31" cy="9" r="1" fill="srgba(1,1,1,1)"/>
  <circle cx="32" cy="9" r="1" fill="srgba(1,1,1,1)"/>
  <circle cx="33" cy="9" r="1" fill="srgba(14,14,14,1)"/>
  <circle cx="0" cy="10" r="1" fill="srgba(1,1,1,1)"/>
  <circle cx="1" cy="10" r="1" fill="srgba(1,1,1,1)"/>
  <circle cx="2" cy="10" r="1" fill="srgba(1,1,1,1)"/>
  <circle cx="3" cy="10" r="1" fill="srgba(1,1,1,1)"/>
  <circle cx="4" cy="10" r="1" fill="srgba(1,1,1,1)"/>
  <circle cx="5" cy="10" r="1" fill="srgba(1,1,1,1)"/>
  <circle cx="6" cy="10" r="1" fill="srgba(1,1,1,1)"/>
  <circle cx="7" cy="10" r="1" fill="srgba(1,1,1,1)"/>
  <circle cx="8" cy="10" r="1" fill="srgba(1,1,1,1)"/>
  <circle cx="9" cy="10" r="1" fill="srgba(1,1,1,1)"/>
  <circle cx="10" cy="10" r="1" fill="srgba(1,1,1,1)"/>
  <circle cx="11" cy="10" r="1" fill="srgba(1,1,1,1)"/>
  <circle cx="12" cy="10" r="1" fill="srgba(1,1,1,1)"/>
  <circle cx="13" cy="10" r="1" fill="srgba(1,1,1,1)"/>
  <circle cx="14" cy="10" r="1" fill="srgba(1,1,1,1)"/>
  <circle cx="15" cy="10" r="1" fill="srgba(1,1,1,1)"/>
  <circle cx="16" cy="10" r="1" fill="srgba(1,1,1,1)"/>
  <circle cx="17" cy="10" r="1" fill="srgba(1,1,1,1)"/>
  <circle cx="18" cy="10" r="1" fill="srgba(1,1,1,1)"/>
  <circle cx="19" cy="10" r="1" fill="srgba(1,1,1,1)"/>
  <circle cx="20" cy="10" r="1" fill="srgba(1,1,1,1)"/>
  <circle cx="21" cy="10" r="1" fill="srgba(1,1,1,1)"/>
  <circle cx="22" cy="10" r="1" fill="srgba(1,1,1,1)"/>
  <circle cx="23" cy="10" r="1" fill="srgba(1,1,1,1)"/>
  <circle cx="24" cy="10" r="1" fill="srgba(1,1,1,1)"/>
  <circle cx="25" cy="10" r="1" fill="srgba(1,1,1,1)"/>
  <circle cx="26" cy="10" r="1" fill="srgba(1,1,1,1)"/>
  <circle cx="27" cy="10" r="1" fill="srgba(1,1,1,1)"/>
  <circle cx="28" cy="10" r="1" fill="srgba(1,1,1,1)"/>
  <circle cx="29" cy="10" r="1" fill="srgba(1,1,1,1)"/>
  <circle cx="30" cy="10" r="1" fill="srgba(1,1,1,1)"/>
  <circle cx="31" cy="10" r="1" fill="srgba(1,1,1,1)"/>
  <circle cx="32" cy="10" r="1" fill="srgba(1,1,1,1)"/>
  <circle cx="33" cy="10" r="1" fill="srgba(14,14,14,1)"/>
  <circle cx="0" cy="11" r="1" fill="srgba(1,1,1,1)"/>
  <circle cx="1" cy="11" r="1" fill="srgba(1,1,1,1)"/>
  <circle cx="2" cy="11" r="1" fill="srgba(1,1,1,1)"/>
  <circle cx="3" cy="11" r="1" fill="srgba(1,1,1,1)"/>
  <circle cx="4" cy="11" r="1" fill="srgba(1,1,1,1)"/>
  <circle cx="5" cy="11" r="1" fill="srgba(1,1,1,1)"/>
  <circle cx="6" cy="11" r="1" fill="srgba(1,1,1,1)"/>
  <circle cx="7" cy="11" r="1" fill="srgba(1,1,1,1)"/>
  <circle cx="8" cy="11" r="1" fill="srgba(1,1,1,1)"/>
  <circle cx="9" cy="11" r="1" fill="srgba(1,1,1,1)"/>
  <circle cx="10" cy="11" r="1" fill="srgba(1,1,1,1)"/>
  <circle cx="11" cy="11" r="1" fill="srgba(1,1,1,1)"/>
  <circle cx="12" cy="11" r="1" fill="srgba(1,1,1,1)"/>
  <circle cx="13" cy="11" r="1" fill="srgba(1,1,1,1)"/>
  <circle cx="14" cy="11" r="1" fill="srgba(1,1,1,1)"/>
  <circle cx="15" cy="11" r="1" fill="srgba(1,1,1,1)"/>
  <circle cx="16" cy="11" r="1" fill="srgba(1,1,1,1)"/>
  <circle cx="17" cy="11" r="1" fill="srgba(1,1,1,1)"/>
  <circle cx="18" cy="11" r="1" fill="srgba(1,1,1,1)"/>
  <circle cx="19" cy="11" r="1" fill="srgba(1,1,1,1)"/>
  <circle cx="20" cy="11" r="1" fill="srgba(1,1,1,1)"/>
  <circle cx="21" cy="11" r="1" fill="srgba(1,1,1,1)"/>
  <circle cx="22" cy="11" r="1" fill="srgba(1,1,1,1)"/>
  <circle cx="23" cy="11" r="1" fill="srgba(1,1,1,1)"/>
  <circle cx="24" cy="11" r="1" fill="srgba(1,1,1,1)"/>
  <circle cx="25" cy="11" r="1" fill="srgba(1,1,1,1)"/>
  <circle cx="26" cy="11" r="1" fill="srgba(1,1,1,1)"/>
  <circle cx="27" cy="11" r="1" fill="srgba(1,1,1,1)"/>
  <circle cx="28" cy="11" r="1" fill="srgba(1,1,1,1)"/>
  <circle cx="29" cy="11" r="1" fill="srgba(1,1,1,1)"/>
  <circle cx="30" cy="11" r="1" fill="srgba(1,1,1,1)"/>
  <circle cx="31" cy="11" r="1" fill="srgba(1,1,1,1)"/>
  <circle cx="32" cy="11" r="1" fill="srgba(1,1,1,1)"/>
  <circle cx="33" cy="11" r="1" fill="srgba(14,14,14,1)"/>
  <circle cx="0" cy="12" r="1" fill="srgba(94.9004%,94.9004%,94.9004%,1)"/>
  <circle cx="1" cy="12" r="1" fill="srgba(94.9004%,94.9004%,94.9004%,1)"/>
  <circle cx="2" cy="12" r="1" fill="srgba(94.9004%,94.9004%,94.9004%,1)"/>
  <circle cx="3" cy="12" r="1" fill="srgba(94.9004%,94.9004%,94.9004%,1)"/>
  <circle cx="4" cy="12" r="1" fill="srgba(94.9004%,94.9004%,94.9004%,1)"/>
  <circle cx="5" cy="12" r="1" fill="srgba(94.9004%,94.9004%,94.9004%,1)"/>
  <circle cx="6" cy="12" r="1" fill="srgba(94.9004%,94.9004%,94.9004%,1)"/>
  <circle cx="7" cy="12" r="1" fill="srgba(94.9004%,94.9004%,94.9004%,1)"/>
  <circle cx="8" cy="12" r="1" fill="srgba(94.9004%,94.9004%,94.9004%,1)"/>
  <circle cx="9" cy="12" r="1" fill="srgba(94.9004%,94.9004%,94.9004%,1)"/>
  <circle cx="10" cy="12" r="1" fill="srgba(94.9004%,94.9004%,94.9004%,1)"/>
  <circle cx="11" cy="12" r="1" fill="srgba(94.9004%,94.9004%,94.9004%,1)"/>
  <circle cx="12" cy="12" r="1" fill="srgba(94.9004%,94.9004%,94.9004%,1)"/>
  <circle cx="13" cy="12" r="1" fill="srgba(94.9004%,94.9004%,94.9004%,1)"/>
  <circle cx="14" cy="12" r="1" fill="srgba(94.9004%,94.9004%,94.9004%,1)"/>
  <circle cx="15" cy="12" r="1" fill="srgba(17.6455%,17.6455%,17.6455%,1)"/>
  <circle cx="16" cy="12" r="1" fill="srgba(1,1,1,1)"/>
  <circle cx="17" cy="12" r="1" fill="srgba(1,1,1,1)"/>
  <circle cx="18" cy="12" r="1" fill="srgba(1,1,1,1)"/>
  <circle cx="19" cy="12" r="1" fill="srgba(1,1,1,1)"/>
  <circle cx="20" cy="12" r="1" fill="srgba(1,1,1,1)"/>
  <circle cx="21" cy="12" r="1" fill="srgba(1,1,1,1)"/>
  <circle cx="22" cy="12" r="1" fill="srgba(1,1,1,1)"/>
  <circle cx="23" cy="12" r="1" fill="srgba(1,1,1,1)"/>
  <circle cx="24" cy="12" r="1" fill="srgba(1,1,1,1)"/>
  <circle cx="25" cy="12" r="1" fill="srgba(1,1,1,1)"/>
  <circle cx="26" cy="12" r="1" fill="srgba(1,1,1,1)"/>
  <circle cx="27" cy="12" r="1" fill="srgba(1,1,1,1)"/>
  <circle cx="28" cy="12" r="1" fill="srgba(1,1,1,1)"/>
  <circle cx="29" cy="12" r="1" fill="srgba(1,1,1,1)"/>
  <circle cx="30" cy="12" r="1" fill="srgba(1,1,1,1)"/>
  <circle cx="31" cy="12" r="1" fill="srgba(1,1,1,1)"/>
  <circle cx="32" cy="12" r="1" fill="srgba(198,198,198,1)"/>
  <circle cx="33" cy="12" r="1" fill="grey82"/>
  <circle cx="0" cy="13" r="1" fill="white"/>
  <circle cx="1" cy="13" r="1" fill="white"/>
  <circle cx="2" cy="13" r="1" fill="white"/>
  <circle cx="3" cy="13" r="1" fill="white"/>
  <circle cx="4" cy="13" r="1" fill="white"/>
  <circle cx="5" cy="13" r="1" fill="white"/>
  <circle cx="6" cy="13" r="1" fill="white"/>
  <circle cx="7" cy="13" r="1" fill="white"/>
  <circle cx="8" cy="13" r="1" fill="white"/>
  <circle cx="9" cy="13" r="1" fill="white"/>
  <circle cx="10" cy="13" r="1" fill="white"/>
  <circle cx="11" cy="13" r="1" fill="white"/>
  <circle cx="12" cy="13" r="1" fill="white"/>
  <circle cx="13" cy="13" r="1" fill="white"/>
  <circle cx="14" cy="13" r="1" fill="white"/>
  <circle cx="15" cy="13" r="1" fill="srgba(18.822%,18.822%,18.822%,1)"/>
  <circle cx="16" cy="13" r="1" fill="srgba(1,1,1,1)"/>
  <circle cx="17" cy="13" r="1" fill="srgba(1,1,1,1)"/>
  <circle cx="18" cy="13" r="1" fill="srgba(1,1,1,1)"/>
  <circle cx="19" cy="13" r="1" fill="srgba(1,1,1,1)"/>
  <circle cx="20" cy="13" r="1" fill="srgba(1,1,1,1)"/>
  <circle cx="21" cy="13" r="1" fill="srgba(1,1,1,1)"/>
  <circle cx="22" cy="13" r="1" fill="srgba(1,1,1,1)"/>
  <circle cx="23" cy="13" r="1" fill="srgba(1,1,1,1)"/>
  <circle cx="24" cy="13" r="1" fill="srgba(1,1,1,1)"/>
  <circle cx="25" cy="13" r="1" fill="srgba(1,1,1,1)"/>
  <circle cx="26" cy="13" r="1" fill="srgba(1,1,1,1)"/>
  <circle cx="27" cy="13" r="1" fill="srgba(1,1,1,1)"/>
  <circle cx="28" cy="13" r="1" fill="srgba(1,1,1,1)"/>
  <circle cx="29" cy="13" r="1" fill="srgba(1,1,1,1)"/>
  <circle cx="30" cy="13" r="1" fill="srgba(1,1,1,1)"/>
  <circle cx="31" cy="13" r="1" fill="srgba(198,198,198,1)"/>
  <circle cx="32" cy="13" r="1" fill="srgba(99.2142%,99.2142%,99.2142%,1)"/>
  <circle cx="33" cy="13" r="1" fill="white"/>
  <circle cx="0" cy="14" r="1" fill="white"/>
  <circle cx="1" cy="14" r="1" fill="white"/>
  <circle cx="2" cy="14" r="1" fill="white"/>
  <circle cx="3" cy="14" r="1" fill="white"/>
  <circle cx="4" cy="14" r="1" fill="white"/>
  <circle cx="5" cy="14" r="1" fill="white"/>
  <circle cx="6" cy="14" r="1" fill="white"/>
  <circle cx="7" cy="14" r="1" fill="white"/>
  <circle cx="8" cy="14" r="1" fill="white"/>
  <circle cx="9" cy="14" r="1" fill="white"/>
  <circle cx="10" cy="14" r="1" fill="white"/>
  <circle cx="11" cy="14" r="1" fill="white"/>
  <circle cx="12" cy="14" r="1" fill="white"/>
  <circle cx="13" cy="14" r="1" fill="white"/>
  <circle cx="14" cy="14" r="1" fill="white"/>
  <circle cx="15" cy="14" r="1" fill="srgba(18.822%,18.822%,18.822%,1)"/>
  <circle cx="16" cy="14" r="1" fill="srgba(1,1,1,1)"/>
  <circle cx="17" cy="14" r="1" fill="srgba(1,1,1,1)"/>
  <circle cx="18" cy="14" r="1" fill="srgba(1,1,1,1)"/>
  <circle cx="19" cy="14" r="1" fill="srgba(1,1,1,1)"/>
  <circle cx="20" cy="14" r="1" fill="srgba(1,1,1,1)"/>
  <circle cx="21" cy="14" r="1" fill="srgba(1,1,1,1)"/>
  <circle cx="22" cy="14" r="1" fill="srgba(1,1,1,1)"/>
  <circle cx="23" cy="14" r="1" fill="srgba(1,1,1,1)"/>
  <circle cx="24" cy="14" r="1" fill="srgba(1,1,1,1)"/>
  <circle cx="25" cy="14" r="1" fill="srgba(1,1,1,1)"/>
  <circle cx="26" cy="14" r="1" fill="srgba(1,1,1,1)"/>
  <circle cx="27" cy="14" r="1" fill="srgba(1,1,1,1)"/>
  <circle cx="28" cy="14" r="1" fill="srgba(1,1,1,1)"/>
  <circle cx="29" cy="14" r="1" fill="srgba(1,1,1,1)"/>
  <circle cx="30" cy="14" r="1" fill="srgba(198,198,198,1)"/>
  <circle cx="31" cy="14" r="1" fill="srgba(99.2142%,99.2142%,99.2142%,1)"/>
  <circle cx="32" cy="14" r="1" fill="white"/>
  <circle cx="33" cy="14" r="1" fill="white"/>
  <circle cx="0" cy="15" r="1" fill="white"/>
  <circle cx="1" cy="15" r="1" fill="white"/>
  <circle cx="2" cy="15" r="1" fill="white"/>
  <circle cx="3" cy="15" r="1" fill="white"/>
  <circle cx="4" cy="15" r="1" fill="white"/>
  <circle cx="5" cy="15" r="1" fill="white"/>
  <circle cx="6" cy="15" r="1" fill="white"/>
  <circle cx="7" cy="15" r="1" fill="white"/>
  <circle cx="8" cy="15" r="1" fill="white"/>
  <circle cx="9" cy="15" r="1" fill="white"/>
  <circle cx="10" cy="15" r="1" fill="white"/>
  <circle cx="11" cy="15" r="1" fill="white"/>
  <circle cx="12" cy="15" r="1" fill="white"/>
  <circle cx="13" cy="15" r="1" fill="white"/>
  <circle cx="14" cy="15" r="1" fill="white"/>
  <circle cx="15" cy="15" r="1" fill="srgba(18.822%,18.822%,18.822%,1)"/>
  <circle cx="16" cy="15" r="1" fill="srgba(1,1,1,1)"/>
  <circle cx="17" cy="15" r="1" fill="srgba(1,1,1,1)"/>
  <circle cx="18" cy="15" r="1" fill="srgba(1,1,1,1)"/>
  <circle cx="19" cy="15" r="1" fill="srgba(1,1,1,1)"/>
  <circle cx="20" cy="15" r="1" fill="srgba(1,1,1,1)"/>
  <circle cx="21" cy="15" r="1" fill="srgba(1,1,1,1)"/>
  <circle cx="22" cy="15" r="1" fill="srgba(1,1,1,1)"/>
  <circle cx="23" cy="15" r="1" fill="srgba(1,1,1,1)"/>
  <circle cx="24" cy="15" r="1" fill="srgba(1,1,1,1)"/>
  <circle cx="25" cy="15" r="1" fill="srgba(1,1,1,1)"/>
  <circle cx="26" cy="15" r="1" fill="srgba(1,1,1,1)"/>
  <circle cx="27" cy="15" r="1" fill="srgba(1,1,1,1)"/>
  <circle cx="28" cy="15" r="1" fill="srgba(1,1,1,1)"/>
  <circle cx="29" cy="15" r="1" fill="srgba(1,1,1,1)"/>
  <circle cx="30" cy="15" r="1" fill="srgba(208,208,208,1)"/>
  <circle cx="31" cy="15" r="1" fill="white"/>
  <circle cx="32" cy="15" r="1" fill="white"/>
  <circle cx="33" cy="15" r="1" fill="white"/>
  <circle cx="0" cy="16" r="1" fill="white"/>
  <circle cx="1" cy="16" r="1" fill="white"/>
  <circle cx="2" cy="16" r="1" fill="white"/>
  <circle cx="3" cy="16" r="1" fill="white"/>
  <circle cx="4" cy="16" r="1" fill="white"/>
  <circle cx="5" cy="16" r="1" fill="white"/>
  <circle cx="6" cy="16" r="1" fill="white"/>
  <circle cx="7" cy="16" r="1" fill="white"/>
  <circle cx="8" cy="16" r="1" fill="white"/>
  <circle cx="9" cy="16" r="1" fill="white"/>
  <circle cx="10" cy="16" r="1" fill="white"/>
  <circle cx="11" cy="16" r="1" fill="white"/>
  <circle cx="12" cy="16" r="1" fill="white"/>
  <circle cx="13" cy="16" r="1" fill="white"/>
  <circle cx="14" cy="16" r="1" fill="white"/>
  <circle cx="15" cy="16" r="1" fill="srgba(18.822%,18.822%,18.822%,1)"/>
  <circle cx="16" cy="16" r="1" fill="srgba(1,1,1,1)"/>
  <circle cx="17" cy="16" r="1" fill="srgba(1,1,1,1)"/>
  <circle cx="18" cy="16" r="1" fill="srgba(1,1,1,1)"/>
  <circle cx="19" cy="16" r="1" fill="srgba(1,1,1,1)"/>
  <circle cx="20" cy="16" r="1" fill="srgba(1,1,1,1)"/>
  <circle cx="21" cy="16" r="1" fill="srgba(1,1,1,1)"/>
  <circle cx="22" cy="16" r="1" fill="srgba(1,1,1,1)"/>
  <circle cx="23" cy="16" r="1" fill="srgba(1,1,1,1)"/>
  <circle cx="24" cy="16" r="1" fill="srgba(1,1,1,1)"/>
  <circle cx="25" cy="16" r="1" fill="srgba(1,1,1,1)"/>
  <circle cx="26" cy="16" r="1" fill="srgba(1,1,1,1)"/>
  <circle cx="27" cy="16" r="1" fill="srgba(1,1,1,1)"/>
  <circle cx="28" cy="16" r="1" fill="srgba(1,1,1,1)"/>
  <circle cx="29" cy="16" r="1" fill="srgba(198,198,198,1)"/>
  <circle cx="30" cy="16" r="1" fill="srgba(99.2142%,99.2142%,99.2142%,1)"/>
  <circle cx="31" cy="16" r="1" fill="white"/>
  <circle cx="32" cy="16" r="1" fill="white"/>
  <circle cx="33" cy="16" r="1" fill="white"/>
  <circle cx="0" cy="17" r="1" fill="white"/>
  <circle cx="1" cy="17" r="1" fill="white"/>
  <circle cx="2" cy="17" r="1" fill="white"/>
  <circle cx="3" cy="17" r="1" fill="white"/>
  <circle cx="4" cy="17" r="1" fill="white"/>
  <circle cx="5" cy="17" r="1" fill="white"/>
  <circle cx="6" cy="17" r="1" fill="white"/>
  <circle cx="7" cy="17" r="1" fill="white"/>
  <circle cx="8" cy="17" r="1" fill="white"/>
  <circle cx="9" cy="17" r="1" fill="white"/>
  <circle cx="10" cy="17" r="1" fill="white"/>
  <circle cx="11" cy="17" r="1" fill="white"/>
  <circle cx="12" cy="17" r="1" fill="white"/>
  <circle cx="13" cy="17" r="1" fill="white"/>
  <circle cx="14" cy="17" r="1" fill="white"/>
  <circle cx="15" cy="17" r="1" fill="srgba(18.822%,18.822%,18.822%,1)"/>
  <circle cx="16" cy="17" r="1" fill="srgba(1,1,1,1)"/>
  <circle cx="17" cy="17" r="1" fill="srgba(1,1,1,1)"/>
  <circle cx="18" cy="17" r="1" fill="srgba(1,1,1,1)"/>
  <circle cx="19" cy="17" r="1" fill="srgba(1,1,1,1)"/>
  <circle cx="20" cy="17" r="1" fill="srgba(1,1,1,1)"/>
  <circle cx="21" cy="17" r="1" fill="srgba(1,1,1,1)"/>
  <circle cx="22" cy="17" r="1" fill="srgba(1,1,1,1)"/>
  <circle cx="23" cy="17" r="1" fill="srgba(1,1,1,1)"/>
  <circle cx="24" cy="17" r="1" fill="srgba(1,1,1,1)"/>
  <circle cx="25" cy="17" r="1" fill="srgba(1,1,1,1)"/>
  <circle cx="26" cy="17" r="1" fill="srgba(1,1,1,1)"/>
  <circle cx="27" cy="17" r="1" fill="srgba(1,1,1,1)"/>
  <circle cx="28" cy="17" r="1" fill="srgba(198,198,198,1)"/>
  <circle cx="29" cy="17" r="1" fill="srgba(99.2142%,99.2142%,99.2142%,1)"/>
  <circle cx="30" cy="17" r="1" fill="white"/>
  <circle cx="31" cy="17" r="1" fill="white"/>
  <circle cx="32" cy="17" r="1" fill="white"/>
  <circle cx="33" cy="17" r="1" fill="white"/>
  <circle cx="0" cy="18" r="1" fill="white"/>
  <circle cx="1" cy="18" r="1" fill="white"/>
  <circle cx="2" cy="18" r="1" fill="white"/>
  <circle cx="3" cy="18" r="1" fill="white"/>
  <circle cx="4" cy="18" r="1" fill="white"/>
  <circle cx="5" cy="18" r="1" fill="white"/>
  <circle cx="6" cy="18" r="1" fill="white"/>
  <circle cx="7" cy="18" r="1" fill="white"/>
  <circle cx="8" cy="18" r="1" fill="white"/>
  <circle cx="9" cy="18" r="1" fill="white"/>
  <circle cx="10" cy="18" r="1" fill="white"/>
  <circle cx="11" cy="18" r="1" fill="white"/>
  <circle cx="12" cy="18" r="1" fill="white"/>
  <circle cx="13" cy="18" r="1" fill="white"/>
  <circle cx="14" cy="18" r="1" fill="white"/>
  <circle cx="15" cy="18" r="1" fill="srgba(18.822%,18.822%,18.822%,1)"/>
  <circle cx="16" cy="18" r="1" fill="srgba(1,1,1,1)"/>
  <circle cx="17" cy="18" r="1" fill="srgba(1,1,1,1)"/>
  <circle cx="18" cy="18" r="1" fill="srgba(1,1,1,1)"/>
  <circle cx="19" cy="18" r="1" fill="srgba(1,1,1,1)"/>
  <circle cx="20" cy="18" r="1" fill="srgba(1,1,1,1)"/>
  <circle cx="21" cy="18" r="1" fill="srgba(1,1,1,1)"/>
  <circle cx="22" cy="18" r="1" fill="srgba(1,1,1,1)"/>
  <circle cx="23" cy="18" r="1" fill="srgba(1,1,1,1)"/>
  <circle cx="24" cy="18" r="1" fill="srgba(1,1,1,1)"/>
  <circle cx="25" cy="18" r="1" fill="srgba(1,1,1,1)"/>
  <circle cx="26" cy="18" r="1" fill="srgba(1,1,1,1)"/>
  <circle cx="27" cy="18" r="1" fill="srgba(198,198,198,1)"/>
  <circle cx="28" cy="18" r="1" fill="srgba(99.2142%,99.2142%,99.2142%,1)"/>
  <circle cx="29" cy="18" r="1" fill="white"/>
  <circle cx="30" cy="18" r="1" fill="white"/>
  <circle cx="31" cy="18" r="1" fill="white"/>
  <circle cx="32" cy="18" r="1" fill="white"/>
  <circle cx="33" cy="18" r="1" fill="white"/>
  <circle cx="0" cy="19" r="1" fill="white"/>
  <circle cx="1" cy="19" r="1" fill="white"/>
  <circle cx="2" cy="19" r="1" fill="white"/>
  <circle cx="3" cy="19" r="1" fill="white"/>
  <circle cx="4" cy="19" r="1" fill="white"/>
  <circle cx="5" cy="19" r="1" fill="white"/>
  <circle cx="6" cy="19" r="1" fill="white"/>
  <circle cx="7" cy="19" r="1" fill="white"/>
  <circle cx="8" cy="19" r="1" fill="white"/>
  <circle cx="9" cy="19" r="1" fill="white"/>
  <circle cx="10" cy="19" r="1" fill="white"/>
  <circle cx="11" cy="19" r="1" fill="white"/>
  <circle cx="12" cy="19" r="1" fill="white"/>
  <circle cx="13" cy="19" r="1" fill="white"/>
  <circle cx="14" cy="19" r="1" fill="white"/>
  <circle cx="15" cy="19" r="1" fill="srgba(18.822%,18.822%,18.822%,1)"/>
  <circle cx="16" cy="19" r="1" fill="srgba(1,1,1,1)"/>
  <circle cx="17" cy="19" r="1" fill="srgba(1,1,1,1)"/>
  <circle cx="18" cy="19" r="1" fill="srgba(1,1,1,1)"/>
  <circle cx="19" cy="19" r="1" fill="srgba(1,1,1,1)"/>
  <circle cx="20" cy="19" r="1" fill="srgba(1,1,1,1)"/>
  <circle cx="21" cy="19" r="1" fill="srgba(1,1,1,1)"/>
  <circle cx="22" cy="19" r="1" fill="srgba(1,1,1,1)"/>
  <circle cx="23" cy="19" r="1" fill="srgba(1,1,1,1)"/>
  <circle cx="24" cy="19" r="1" fill="srgba(1,1,1,1)"/>
  <circle cx="25" cy="19" r="1" fill="srgba(1,1,1,1)"/>
  <circle cx="26" cy="19" r="1" fill="srgba(198,198,198,1)"/>
  <circle cx="27" cy="19" r="1" fill="srgba(99.2142%,99.2142%,99.2142%,1)"/>
  <circle cx="28" cy="19" r="1" fill="white"/>
  <circle cx="29" cy="19" r="1" fill="white"/>
  <circle cx="30" cy="19" r="1" fill="white"/>
  <circle cx="31" cy="19" r="1" fill="white"/>
  <circle cx="32" cy="19" r="1" fill="white"/>
  <circle cx="33" cy="19" r="1" fill="white"/>
  <circle cx="0" cy="20" r="1" fill="white"/>
  <circle cx="1" cy="20" r="1" fill="white"/>
  <circle cx="2" cy="20" r="1" fill="white"/>
  <circle cx="3" cy="20" r="1" fill="white"/>
  <circle cx="4" cy="20" r="1" fill="white"/>
  <circle cx="5" cy="20" r="1" fill="white"/>
  <circle cx="6" cy="20" r="1" fill="white"/>
  <circle cx="7" cy="20" r="1" fill="white"/>
  <circle cx="8" cy="20" r="1" fill="white"/>
  <circle cx="9" cy="20" r="1" fill="white"/>
  <circle cx="10" cy="20" r="1" fill="white"/>
  <circle cx="11" cy="20" r="1" fill="white"/>
  <circle cx="12" cy="20" r="1" fill="white"/>
  <circle cx="13" cy="20" r="1" fill="white"/>
  <circle cx="14" cy="20" r="1" fill="white"/>
  <circle cx="15" cy="20" r="1" fill="srgba(18.822%,18.822%,18.822%,1)"/>
  <circle cx="16" cy="20" r="1" fill="srgba(1,1,1,1)"/>
  <circle cx="17" cy="20" r="1" fill="srgba(1,1,1,1)"/>
  <circle cx="18" cy="20" r="1" fill="srgba(1,1,1,1)"/>
  <circle cx="19" cy="20" r="1" fill="srgba(1,1,1,1)"/>
  <circle cx="20" cy="20" r="1" fill="srgba(1,1,1,1)"/>
  <circle cx="21" cy="20" r="1" fill="srgba(1,1,1,1)"/>
  <circle cx="22" cy="20" r="1" fill="srgba(1,1,1,1)"/>
  <circle cx="23" cy="20" r="1" fill="srgba(1,1,1,1)"/>
  <circle cx="24" cy="20" r="1" fill="srgba(1,1,1,1)"/>
  <circle cx="25" cy="20" r="1" fill="srgba(198,198,198,1)"/>
  <circle cx="26" cy="20" r="1" fill="srgba(99.2142%,99.2142%,99.2142%,1)"/>
  <circle cx="27" cy="20" r="1" fill="white"/>
  <circle cx="28" cy="20" r="1" fill="white"/>
  <circle cx="29" cy="20" r="1" fill="white"/>
  <circle cx="30" cy="20" r="1" fill="white"/>
  <circle cx="31" cy="20" r="1" fill="white"/>
  <circle cx="32" cy="20" r="1" fill="white"/>
  <circle cx="33" cy="20" r="1" fill="white"/>
  <circle cx="0" cy="21" r="1" fill="white"/>
  <circle cx="1" cy="21" r="1" fill="white"/>
  <circle cx="2" cy="21" r="1" fill="white"/>
  <circle cx="3" cy="21" r="1" fill="white"/>
  <circle cx="4" cy="21" r="1" fill="white"/>
  <circle cx="5" cy="21" r="1" fill="white"/>
  <circle cx="6" cy="21" r="1" fill="white"/>
  <circle cx="7" cy="21" r="1" fill="white"/>
  <circle cx="8" cy="21" r="1" fill="white"/>
  <circle cx="9" cy="21" r="1" fill="white"/>
  <circle cx="10" cy="21" r="1" fill="white"/>
  <circle cx="11" cy="21" r="1" fill="white"/>
  <circle cx="12" cy="21" r="1" fill="white"/>
  <circle cx="13" cy="21" r="1" fill="white"/>
  <circle cx="14" cy="21" r="1" fill="white"/>
  <circle cx="15" cy="21" r="1" fill="srgba(23.5279%,23.5279%,23.5279%,1)"/>
  <circle cx="16" cy="21" r="1" fill="srgba(14,14,14,1)"/>
  <circle cx="17" cy="21" r="1" fill="srgba(14,14,14,1)"/>
  <circle cx="18" cy="21" r="1" fill="srgba(14,14,14,1)"/>
  <circle cx="19" cy="21" r="1" fill="srgba(14,14,14,1)"/>
  <circle cx="20" cy="21" r="1" fill="srgba(14,14,14,1)"/>
  <circle cx="21" cy="21" r="1" fill="srgba(14,14,14,1)"/>
  <circle cx="22" cy="21" r="1" fill="srgba(14,14,14,1)"/>
  <circle cx="23" cy="21" r="1" fill="srgba(14,14,14,1)"/>
  <circle cx="24" cy="21" r="1" fill="srgba(14,14,14,1)"/>
  <circle cx="25" cy="21" r="1" fill="grey82"/>
  <circle cx="26" cy="21" r="1" fill="white"/>
  <circle cx="27" cy="21" r="1" fill="white"/>
  <circle cx="28" cy="21" r="1" fill="white"/>
  <circle cx="29" cy="21" r="1" fill="white"/>
  <circle cx="30" cy="21" r="1" fill="white"/>
  <circle cx="31" cy="21" r="1" fill="white"/>
  <circle cx="32" cy="21" r="1" fill="white"/>
  <circle cx="33" cy="21" r="1" fill="white"/>
</svg>
