<svg height="18" viewBox="0 0 18 18" width="18" xmlns="http://www.w3.org/2000/svg"><path d="m76.3103887 0h13.3794074c1.2706121 0 2.3102039.94070538 2.3102039 2.31018019v13.37963961c0 1.3694748-1.0395918 2.3101802-2.3102039 2.3101802h-13.3794074c-1.2709818 0-2.3103887-.9407054-2.3103887-2.3101802v-13.37963961c0-1.36947481 1.0394069-2.31018019 2.3103887-2.31018019zm11.5761404 2c-.4878641 0-.8865291.40944718-.8865291.91045938v2.17908124c0 .50080457.398665.91045938.8865291.91045938h2.2265372c.4878641 0 .8869337-.40965481.8869337-.91045938v-2.17908124c0-.5010122-.3990696-.91045938-.8869337-.91045938zm2.1131004 6h-1.5881217c.1502528.4706196.2315857.96914225.2315857 1.48490436 0 2.87916824-2.5114999 5.21307174-5.6090041 5.21307174-3.0973189 0-5.6084482-2.3339035-5.6084482-5.21307174 0-.51611757.0811476-1.01446249.2315856-1.48490436h-1.6572268v7.3118432c0 .3783796.3227377.6881568.7173597.6881568h12.5652806c.394622 0 .7173597-.3095994.7173597-.6881568v-7.3118432zm-6.4998084-2c-1.9327744 0-3.4998211 1.56690234-3.4998211 3.5 0 1.9330977 1.5670467 3.5 3.4998211 3.5 1.9329533 0 3.5001789-1.5669023 3.5001789-3.5 0-1.93309766-1.5670467-3.5-3.5001789-3.5z" fill="#b22d00" transform="translate(-74)"/></svg>