<svg height="23" viewBox="0 0 19 23" width="19" xmlns="http://www.w3.org/2000/svg"><path d="m9.90954753.87861995c-6.34549158 0-9.54489909 4.30443604-9.54489909 7.89416902 0 2.17339103.86960087 4.10667073 2.73449361 4.82745543.30613378.1182537.58036871.0042797.66939985-.316019.06141719-.2218666.20734255-.7811504.27233052-1.0142792.08950723-.31692.05451371-.4279659-.19210728-.7041166-.53775756-.6002785-.88150343-1.3773745-.88150343-2.47814782 0-3.19352665 2.52524665-6.05233891 6.57592509-6.05233891 3.5860026 0 5.5565901 2.07360745 5.5565901 4.84277211 0 3.64356662-1.7042083 6.71861422-4.2339779 6.71861422-1.39736026 0-2.44288093-1.0933402-2.1077049-2.434225.40135424-1.6008177 1.17859126-3.32867378 1.17859126-4.48395648 0-1.03432602-.58631999-1.89724044-1.80085698-1.89724044-1.42830693 0-2.57547544 1.39809705-2.57547544 3.27078576 0 1.19289866.42587351 1.99972696.42587351 1.99972696s-1.46187214 5.8597543-1.71753908 6.8859715c-.51061972 2.0434246-.07665247 4.5488271-.03999259 4.8017775.02118655.1500133.22472029.185602.31708414.0725289.13211839-.1628523 1.83299389-2.1497403 2.41122014-4.1352769.16354114-.562212.93887375-3.4732812.93887375-3.4732812.46419976.8372365 1.82037718 1.5749146 3.26272909 1.5749146 4.2930146 0 7.2060465-3.7032566 7.2060465-8.66067851.0002381-3.74830561-3.355569-7.23915594-8.45510087-7.23915594z" fill="#b22d00"/></svg>