<svg height="21" viewBox="0 0 21 21" width="21" xmlns="http://www.w3.org/2000/svg"><path d="m10.5 0c-5.78967615 0-10.5 4.71032385-10.5 10.5 0 5.7892532 4.71032385 10.5 10.5 10.5 5.7892532 0 10.5-4.7107468 10.5-10.5 0-5.78967615-4.7099009-10.5-10.5-10.5zm4.2728105 7.48950555c.0047399.10870045.0073252.21828465.0073252.32786885 0 3.3365737-2.4759237 7.1826256-7.00592478 7.1826256-1.39049876 0-2.68490789-.4166851-3.77421092-1.1334011.19261015.0234192.38866746.0353498.58731014.0353498 1.1539373 0 2.21523214-.4038708 3.05806312-1.0808184-1.07723796-.0203261-1.98685769-.7502983-2.30011849-1.753789.14995152.0291635.30464289.0455127.46278143.0455127.22449639 0 .44252935-.0300472.64892814-.0879324-1.12636001-.2315408-1.97479263-1.25182275-1.97479263-2.47580755 0-.01060493 0-.02165172.0004309-.03181477.33178929.18867925.71140795.30268216 1.11472584.31549644-.66013142-.45203482-1.09490466-1.22531041-1.09490466-2.10110026 0-.46308161.12108154-.89699969.33308197-1.26993946 1.21383174 1.52799257 3.02876226 2.53280898 5.07465259 2.6388582-.04222772-.18514427-.06334159-.37735849-.06334159-.57575891 0-1.39410543 1.10222984-2.52485529 2.46170424-2.52485529.7083916 0 1.3474092.30665901 1.7972638.79713667.5614564-.11311917 1.0871485-.32256639 1.5641495-.61287614-.1852849.58989881-.5743833 1.08435332-1.0841323 1.39719853.4985457-.0609783.974254-.19619106 1.414198-.39724272-.3283421.5055013-.7458796.95046618-1.2271895 1.30528921z" fill="#b22d00"/></svg>