<svg height="20" viewBox="0 0 30 20" width="30" xmlns="http://www.w3.org/2000/svg"><g fill="none"><path d="m0 0h30v20h-30z" fill="#ffda44"/><path d="m19 0h11v20h-11z" fill="#d80027"/><path d="m0 0h11v20h-11z" fill="#0052b4"/><path d="m18 8.01299623h-2.4062463c0-.55938404-.4897158-1.01299623-1.0937537-1.01299623-.6040968 0-1.0937537.45355758-1.0937537 1.01299623h-2.4062463c0 .55086551.5180752.99737891 1.1127975.99737891h-.0358472c0 .55086551.4820511.99743356 1.0768913.99743356 0 .4876863.3781649.8929722.8776679.9795773l-.848601 1.7744226c.4065833.1531152.8510184.2381914 1.3170325.2381914.4660142 0 .9103904-.0850762 1.3170325-.2381914l-.848542-1.7744226c.4994441-.0866051.8776679-.491891.8776679-.9795773.5948402 0 1.0768914-.44662266 1.0768914-.99743356h-.0359063c.5948992-.0000546 1.1129155-.44662261 1.1129155-.99737891z" fill="#ff9811"/><path d="m15.5 9-1.5.69229334v1.38464886l1.5.9230578 1.5-.9230578v-1.38464886z" fill="#0052b4"/><path d="m13 9h3v1h-3z" fill="#d80027"/></g></svg>