<svg height="36" viewBox="0 0 59 36" width="59" xmlns="http://www.w3.org/2000/svg"><g fill="none"><path d="m52 6h-2.7246892-12.60746-2.7246892l-1.8472469 2.17741935-5.9573712 7.04032255-1.8472469 2.1774194h-2.7246891-12.37655421-2.72468917l1.80106572-2.2016129.85435169-1.0403226 1.80106567-2.2016129h-2.72468912-3.50976909-1.96269982c-1.5008881 0-2.72468917 1.3306452-2.72468917 2.9274194v5.6612903.532258c0 1.6209678 1.22380107 2.9274194 2.72468917 2.9274194h.76198934 28.63232679 2.0550622c1.5008881 0 3.5559503-.9677419 4.5488455-2.1774194l4.7566607-5.6612903z" fill="#005697"/><path d="m56.2753108.02419355c1.5008881 0 2.7246892 1.33064516 2.7246892 2.92741935v6.19354839c0 1.62096771-1.2238011 2.92741931-2.7246892 2.92741931h-1.4777975-3.9946714-2.7246891l1.8241563-2.17741931.9005328-1.08870968 1.8241563-2.17741935h-18.0568383l-9.6287745 11.37096774h-17.9413854l12.8614565-15.24193548.4849023-.58064517c1.0159858-1.18548387 3.0710479-2.17741935 4.571936-2.17741935h.6234459 30.7335701z" fill="#fbd500"/><path d="m6.21052632 33.1721311c0-.4180327-.09339138-.762295-.28017412-1.057377-.18678275-.295082-.42026118-.5409836-.72378315-.6885246.30352197-.147541.5370004-.3934426.7004353-.6885246.16343491-.3196721.25682628-.6639344.25682628-1.0327869v-.2213114c0-.4672132-.09339137-.8606558-.25682628-1.1803279-.1634349-.3196721-.42026118-.5655738-.72378314-.7622951s-.67708745-.3196721-1.12069648-.4180328c-.44360902-.0737705-.91056589-.1229508-1.44756628-.1229508-.18678275 0-.37356549 0-.56034824 0s-.37356549.0245902-.56034824.0245902-.35021765.0245901-.51365255.0491803-.28017412.0245902-.37356549.0491803c-.21013059.0491803-.3735655.0983607-.46695687.2213115-.09339137.0983607-.14008706.295082-.14008706.5655738v7.1803278c0 .2704918.04669569.442623.14008706.5655738.09339137.0983607.25682628.1721312.46695687.2213115.11673921.0245901.25682627.0491803.39691333.0491803.1634349.0245902.32686981.0245902.51365255.0491803.18678275 0 .3735655.0245902.56034824.0245902h.58369609c.4903047 0 .95726157-.0491803 1.37752275-.1229508s.81717451-.2213115 1.12069648-.4180328c.3268698-.1967213.56034824-.4672131.77047883-.8114754.18678274-.3442623.28017412-.7868853.28017412-1.3032787zm-1.91452315-3.3934426c0 .1229508-.02334785.2459017-.04669569.3688525-.04669569.1229508-.09339137.2213115-.18678275.295082-.09339137.0737704-.21013059.1475409-.35021765.1967213-.14008706.0491803-.3268698.0737705-.56034824.0737705h-1.26078353v-2.0409837h.1634349.25682628.25682627.18678275c.58369608 0 .98060942.0737705 1.21408785.2213115s.35021765.3934426.35021765.7131148v.1721311zm.04669568 3.5163935c0 .3196721-.11673921.5901639-.3268698.762295-.21013059.1721312-.63039177.2704919-1.19074001.2704919h-.18678275c-.09339137 0-.18678274 0-.28017412 0-.09339137 0-.18678274 0-.28017412 0h-.18678274v-2.2131148h1.26078353c.44360903 0 .77047883.0983607.93391374.3196721.1634349.2213115.25682627.4672131.25682627.7377049zm8.03165805-1.8688525c0-.4426229-.0700435-.8114754-.1867827-1.1065574-.1167392-.2950819-.303522-.5409836-.5136526-.7377049-.2334784-.1967213-.4903047-.3442623-.8171745-.4180328-.3268698-.0983606-.7004353-.147541-1.0973486-.147541-.3735655 0-.74713099.0245902-1.09734864.0737705-.35021765.0491804-.63039177.0983607-.84052236.1721312-.14008706.0491803-.21013059.1229508-.21013059.2704918v.9590164c0 .0737705.02334785.1229508.04669569.1721311.04669569.0245902.09339137.0491804.14008706.0491804h.04669569c.09339137 0 .21013059-.0245902.3268698-.0245902.14008706 0 .28017412-.0245902.46695687-.0245902.1634349 0 .35021765-.0245901.53700039-.0245901h.5370004c.25682628 0 .46695689.0491803.60704389.1475409.1400871.0983607.2334785.3196722.2334785.6639345v.4180328h-.60704396c-.95726157 0-1.68104471.1721311-2.10130589.4672131-.44360903.3196721-.65373962.8360655-.65373962 1.5245901v.0983607c0 .3934426.04669569.7131147.16343491.9590164.11673921.2704918.25682627.4672131.44360902.6393442.18678275.147541.37356549.2704919.60704393.3442623.23347843.0737705.46695686.0983607.72378314.0983607.3268698 0 .63039177-.0491803.8638702-.147541.23347847-.0983606.46695687-.2213115.70043527-.3934426v.1967213c0 .0737705.0233479.1229508.0700436.1721312.0466956.0491803.0933913.0737704.1634349.0737704h1.2607835c.0700435 0 .1167392-.0245901.1634349-.0737704.0466957-.0491804.0700435-.0983607.0700435-.1721312v-4.2295082zm-1.7977839 2.8770492c-.140087.0737705-.2801741.1229508-.443609.1721311-.16343491.0491804-.32686982.0737705-.49030472.0737705-.23347843 0-.42026118-.0245901-.5370004-.0983606-.11673921-.0737705-.1634349-.2213115-.1634349-.4918033v-.0983607c0-.1475409.02334784-.2704918.04669569-.3688524.02334784-.0983607.09339137-.1967213.1634349-.2704918s.18678275-.1229508.30352196-.1721312c.11673922-.0245901.28017412-.0491803.49030471-.0491803h.63039176zm8.6853977 1.352459v-3.9344262c0-.3688525-.0233478-.7131148-.0933914-1.0573771-.0466956-.3196721-.1634349-.6147541-.3035219-.8606557-.1400871-.2459017-.3502177-.442623-.6070439-.5655738-.2568263-.147541-.5836961-.2213115-1.0039573-.2213115-.3502177 0-.6770875.0491804-.9572616.147541-.2801741.0983607-.5603482.2459017-.887218.4918033v-.295082c0-.0737705-.0233479-.1229508-.0700436-.1721311-.0466956-.0491803-.0933913-.0737705-.1634349-.0737705h-1.2607835c-.0700435 0-.1167392.0245902-.1634349.0737705s-.0700435.0983606-.0700435.1721311v6.295082c0 .0737705.0233478.1229508.0700435.1721312.0466957.0491803.0933914.0737704.1634349.0737704h1.3541749c.0700435 0 .1167392-.0245901.1634349-.0737704.0466957-.0491804.0700435-.0983607.0700435-.1721312v-4.647541c.1867828-.0983606.3735655-.1967213.5603483-.2704918.1634349-.0737705.3502176-.0983606.5136525-.0983606s.303522.0245901.4202612.0491803.1867828.0983606.2568263.1721311c.0700435.0983607.0933914.1967213.1167392.3442623.0233479.147541.0233479.3196722.0233479.5163935v3.9344262c0 .0737705.0233478.1229508.0700435.1721312.0466957.0491803.0933914.0737704.1634349.0737704h1.3541749c.0700435 0 .1167392-.0245901.1634349-.0737704.0700435-.0491804.1167392-.1229509.1167392-.1721312zm5.510091-.0983607v-1.057377c0-.0737705-.0233478-.1229508-.0700435-.147541-.0466957-.0245901-.0933914-.0491803-.1400871-.0491803h-.0233478c-.2101306.0245902-.4202612.0491803-.6070439.0491803-.1867828.0245902-.443609.0245902-.7704789.0245902-.1167392 0-.2568262-.0245902-.3502176-.0737705-.1167392-.0491803-.2101306-.1229508-.303522-.2213115-.0933913-.0983606-.140087-.2459016-.1867827-.4180328-.0466957-.1721311-.0700435-.3934426-.0700435-.6639344v-.9836066c0-.2704918.0233478-.4918032.0700435-.6639344.0466957-.1721311.1167392-.3196721.1867827-.4180328.0933914-.0983606.1867828-.1721311.303522-.2213114.1167392-.0491804.2334784-.0737705.3502176-.0737705.3268699 0 .5836961 0 .7704789.0245901.1867827.0245902.3969133.0245902.6070439.0491804h.0233478c.0700436 0 .1167393-.0245902.1400871-.0491804.0466957-.0245901.0700435-.0737705.0700435-.147541v-1.057377c0-.0983607-.0233478-.147541-.0466957-.1721312-.0466956-.0245901-.0933913-.0737704-.1867827-.0983606-.1634349-.0491803-.3502176-.0737705-.6070439-.1229508-.2568263-.0491804-.5370004-.0491804-.8872181-.0491804-.7938266 0-1.4242184.2459017-1.9145231.7622951-.4669569.5163935-.7237832 1.2540984-.7237832 2.2377049v.9836066c0 .9590164.2334785 1.7213115.7237832 2.2377049.4669568.5163935 1.1206965.7622951 1.9145231.7622951.3268698 0 .6303918-.0245902.8872181-.0491803.2568263-.0491804.443609-.0737705.6070439-.1229508.0933914-.0245902.1400871-.0491804.1867827-.0983607.0466957-.0245902.0466957-.0983607.0466957-.1721312zm6.257222-3.4672131c0-.4672131-.0700435-.909836-.1867827-1.2786885-.1167392-.3688524-.303522-.6885246-.5370004-.9590164s-.5370004-.4672131-.8872181-.6147541c-.3502176-.147541-.7471309-.2213115-1.2140878-.2213115s-.8638702.0737705-1.2140879.2213115c-.3502176.147541-.6537396.3442623-.887218.6147541s-.4202612.590164-.5370004.9590164c-.1167392.3688525-.1867827.8114754-.1867827 1.2786885v.8360656c0 .4672131.0700435.9098361.1867827 1.2786885.1167392.3688525.303522.6885246.5370004.9590164s.5370004.4672131.887218.6147541c.3502177.147541.747131.2213115 1.2140879.2213115s.8638702-.0737705 1.2140878-.2213115c.3502177-.147541.6537397-.3442623.8872181-.6147541s.4202612-.5901639.5370004-.9590164c.1167392-.3688524.1867827-.8114754.1867827-1.2786885zm-1.8211317.8360656c0 .9590164-.3268698 1.4508197-1.0039573 1.4508197-.3268698 0-.5836961-.1229508-.747131-.3688525-.1634349-.2459016-.2568263-.6147541-.2568263-1.0819672v-.8360656c0-.4918032.0933914-.8360655.2568263-1.0819672.1634349-.2459016.4202612-.3688524.747131-.3688524.6537396 0 1.0039573.4918032 1.0039573 1.4508196zm8.4986149 2.7295082v-3.9344262c0-.3688525-.0233478-.7131148-.0933914-1.0573771-.0466956-.3196721-.1634349-.6147541-.3035219-.8606557-.1400871-.2459017-.3502177-.442623-.6070439-.5655738-.2568263-.147541-.5836961-.2213115-1.0039573-.2213115-.3502177 0-.6770875.0491804-.9572616.147541-.2801741.0983607-.5603482.2459017-.887218.4918033v-.295082c0-.0737705-.0233479-.1229508-.0700436-.1721311-.0466956-.0491803-.0933913-.0737705-.1634349-.0737705h-1.2607835c-.0700435 0-.1167392.0245902-.1634349.0737705s-.0700435.0983606-.0700435.1721311v6.295082c0 .0737705.0233478.1229508.0700435.1721312.0466957.0491803.0933914.0737704.1634349.0737704h1.3541749c.0700435 0 .1167392-.0245901.1634349-.0737704.0466957-.0491804.0700435-.0983607.0700435-.1721312v-4.647541c.1867828-.0983606.3735655-.1967213.5603483-.2704918.1634349-.0737705.3502176-.0983606.5136525-.0983606s.303522.0245901.4202612.0491803.1867828.0983606.2568263.1721311c.0700435.0983607.0933914.1967213.1167392.3442623.0233479.147541.0233479.3196722.0233479.5163935v3.9344262c0 .0737705.0233478.1229508.0700435.1721312.0466957.0491803.0933914.0737704.1634349.0737704h1.3541749c.0700435 0 .1167392-.0245901.1634349-.0737704.0933914-.0491804.1167392-.1229509.1167392-.1721312zm4.9030471.0245902v-.9098361c0-.1229508-.0700435-.1967213-.2334784-.1967213h-.5370004c-.1634349 0-.2801741-.0245902-.303522-.0983607-.0466957-.0737705-.0466957-.2213114-.0466957-.4672131v-3.4426229h.9105659c.0700435 0 .1167392-.0245902.1634349-.0737705s.0700436-.0983607.0700436-.1721312v-.9590164c0-.0737705-.0233479-.1229508-.0700436-.1721311s-.0933914-.0737705-.1634349-.0737705h-.9105659v-1.2540984c0-.0737705-.0233478-.1229508-.0466957-.1475409-.0466956-.0245902-.0933913-.0491804-.140087-.0491804h-.0233479l-1.3541749.2459017c-.0700435.0245901-.1167392.0491803-.1634349.0737705-.0466957.0491803-.0700435.0983606-.0700435.1475409v.9590164h-.9105659c-.0700435 0-.1167392.0245902-.1634349.0737705-.0466957.0491804-.0700435.0983607-.0700435.1721312v.7868852c0 .0737705.0233478.1229508.0700435.1721312.0466957.0491803.0933914.0737705.1634349.0983606l.9105659.147541v3.442623c0 .4180327.0466957.762295.1167392 1.0327868.0933914.2704918.2101306.4672132.3502177.6147541.1634349.147541.3502176.2459017.583696.295082.2334785.0491803.5136526.0737705.8171746.0737705.1634349 0 .3035219 0 .443609-.0245902.1167392-.0245901.2801741-.0491803.443609-.0737705.0933914-.0245901.1634349-.0983606.1634349-.2213114zm6.0003957-4.2540984c0-.4426229-.0700435-.8114754-.1867827-1.1065574-.1167392-.2950819-.303522-.5409836-.5136526-.7377049-.2334784-.1967213-.4903047-.3442623-.8171745-.4180328-.3268698-.0983606-.7004353-.147541-1.0973486-.147541-.3735655 0-.747131.0245902-1.0973486.0737705-.3502177.0491804-.6303918.0983607-.8405224.1721312-.1400871.0491803-.2101306.1229508-.2101306.2704918v.9590164c0 .0737705.0233478.1229508.0466957.1721311.0466957.0245902.0933914.0491804.140087.0491804h.0466957c.0933914 0 .2101306-.0245902.3268698-.0245902.1167393 0 .2801742-.0245902.4436091-.0245902s.3502176-.0245901.5370004-.0245901h.5370004c.2568262 0 .4669568.0491803.6070439.1475409.140087.0983607.2334784.3196722.2334784.6639345v.4180328h-.6070439c-.9572616 0-1.6810447.1721311-2.1013059.4672131-.443609.3196721-.6537396.8360655-.6537396 1.5245901v.0983607c0 .3934426.0466957.7131147.1634349.9590164.1167392.2704918.2568263.4672131.443609.6393442.1867828.147541.3735655.2704919.6070439.3442623.2334785.0737705.4669569.0983607.7237832.0983607.3268698 0 .6303917-.0491803.8638702-.147541.2334784-.0983606.4669568-.2213115.7004353-.3934426v.1967213c0 .0737705.0233478.1229508.0700435.1721312.0466957.0491803.0933914.0737704.1634349.0737704h1.2607835c.0700436 0 .1167393-.0245901.1634349-.0737704.0466957-.0491804.0700436-.0983607.0700436-.1721312v-4.2295082zm-1.7744361 2.8770492c-.140087.0737705-.2801741.1229508-.443609.1721311-.1634349.0491804-.3268698.0737705-.4903047.0737705-.2334784 0-.4202612-.0245901-.5370004-.0983606s-.1634349-.2213115-.1634349-.4918033v-.0983607c0-.1475409.0233479-.2704918.0466957-.3688524.0233478-.0983607.0933914-.1967213.1634349-.2704918s.1867828-.1229508.303522-.1721312c.1167392-.0245901.2801741-.0491803.4903047-.0491803h.6303917zm7.307875 1.2540983v-1.057377c0-.0737705-.0233478-.1229508-.0700435-.147541-.0466957-.0245901-.0933914-.0491803-.1400871-.0491803h-.0233478c-.2101306.0245902-.4202612.0491803-.607044.0491803-.1867827.0245902-.443609.0245902-.7704788.0245902-.1167392 0-.2568263-.0245902-.3502176-.0737705-.1167393-.0491803-.2101306-.1229508-.303522-.2213115-.0933914-.0983606-.1400871-.2459016-.1867828-.4180328-.0466956-.1721311-.0700435-.3934426-.0700435-.6639344v-.9836066c0-.2704918.0233479-.4918032.0700435-.6639344.0466957-.1721311.1167393-.3196721.1867828-.4180328.0933914-.0983606.1867827-.1721311.303522-.2213114.1167392-.0491804.2334784-.0737705.3502176-.0737705.3268698 0 .5836961 0 .7704788.0245901.1867828.0245902.3969134.0245902.607044.0491804h.0233478c.0700435 0 .1167392-.0245902.1400871-.0491804.0466957-.0245901.0700435-.0737705.0700435-.147541v-1.057377c0-.0983607-.0233478-.147541-.0466957-.1721312-.0466957-.0245901-.0933914-.0737704-.1867827-.0983606-.1634349-.0491803-.3502177-.0737705-.607044-.1229508-.2568262-.0491804-.5370004-.0491804-.887218-.0491804-.7938267 0-1.4242184.2459017-1.9145232.7622951-.4669568.5163935-.7237831 1.2540984-.7237831 2.2377049v.9836066c0 .9590164.2334784 1.7213115.7237831 2.2377049.4669569.5163935 1.1206965.7622951 1.9145232.7622951.3268698 0 .6303918-.0245902.887218-.0491803.2568263-.0491804.4669569-.0737705.607044-.1229508.0933913-.0245902.140087-.0491804.1867827-.0983607.0466957-.0245902.0466957-.0983607.0466957-.1721312zm4.8563514.1229509v-.9098361c0-.1229508-.0700435-.1967213-.2334784-.1967213h-.5603483c-.1634349 0-.2801741-.0245902-.3035219-.0983607-.0466957-.0737705-.0466957-.2213114-.0466957-.4672131v-3.4426229h.9105659c.0700435 0 .1167392-.0245902.1634349-.0737705s.0700435-.0983607.0700435-.1721312v-.9590164c0-.0737705-.0233478-.1229508-.0700435-.1721311s-.0933914-.0737705-.1634349-.0737705h-.9105659v-1.2540984c0-.0737705-.0233479-.1229508-.0466957-.1475409-.0466957-.0245902-.0933914-.0491804-.1400871-.0491804h-.0233478l-1.3541749.2459017c-.0700436.0245901-.1167392.0491803-.1634349.0737705-.0466957.0491803-.0700436.0983606-.0700436.1475409v.9590164h-.9105658c-.0700436 0-.1167393.0245902-.1634349.0737705-.0466957.0491804-.0700436.0983607-.0700436.1721312v.7868852c0 .0737705.0233479.1229508.0700436.1721312.0466956.0491803.0933913.0737705.1634349.0983606l.9105658.147541v3.442623c0 .4180327.0466957.762295.1167393 1.0327868.0933913.2704918.2101306.4672132.3502176.6147541.1634349.147541.3502177.2459017.5836961.295082s.5136525.0737705.8171745.0737705c.1634349 0 .303522 0 .443609-.0245902.1167392-.0245901.2801742-.0491803.4436091-.0737705.1167392-.0245901.1867827-.0983606.1867827-.2213114z" fill="#005697"/></g></svg>