<svg height="28" viewBox="0 0 33 28" width="33" xmlns="http://www.w3.org/2000/svg"><path d="m33 8.53125c0 2.6857639-1.405692 5.4201389-4.2170759 8.203125l-11.4726562 10.9375c-.2209822.21875-.4910715.328125-.8102679.328125s-.5892857-.109375-.8102679-.328125l-11.49107139-10.9739583c-.12276785-.0972223-.29157366-.2552084-.50641741-.4739584s-.55552455-.6167534-1.02204241-1.1940104c-.46651785-.5772569-.88392857-1.1697048-1.25223214-1.7773437s-.69670759-1.342882-.98521205-2.2057292c-.28850447-.8628472-.4327567-1.70138889-.4327567-2.515625 0-2.67361111.77957589-4.76388889 2.33872768-6.27083333 1.55915178-1.50694445 3.71372768-2.26041667 6.46372768-2.26041667.76116071 0 1.53766744.13064236 2.32952004.39192708.7918527.26128473 1.5284599.61371528 2.2098215 1.05729167s1.2675781.85980903 1.7586495 1.24869792c.4910715.38888889.9575893.80208333 1.3995536 1.23958333.4419643-.4375.9084821-.85069444 1.3995536-1.23958333.4910714-.38888889 1.0772879-.80512153 1.7586495-1.24869792s1.4179688-.79600694 2.2098215-1.05729167c.7918526-.26128472 1.5683593-.39192708 2.32952-.39192708 2.75 0 4.9045759.75347222 6.4637277 2.26041667 1.5591518 1.50694444 2.3387277 3.59722222 2.3387277 6.27083333z" fill="#ffe8df" opacity=".916667"/></svg>