<svg height="28" viewBox="0 0 33 28" width="33" xmlns="http://www.w3.org/2000/svg"><path d="m31 7.921875c0 2.4939236-1.3204985 5.0329861-3.9614955 7.6171875l-10.7773438 10.15625c-.2075893.203125-.4613095.3046875-.7611607.3046875s-.5535714-.1015625-.7611607-.3046875l-10.79464287-10.1901042c-.11532738-.0902777-.27390253-.2369791-.47572545-.4401041-.20182291-.203125-.5218564-.5726997-.96010044-1.108724-.43824405-.5360243-.83035715-1.0861545-1.17633929-1.6503906s-.65448289-1.2469618-.92550223-2.0481771c-.27101935-.80121528-.40652902-1.57986111-.40652902-2.3359375 0-2.48263889.73232887-4.42361111 2.19698661-5.82291667 1.46465774-1.39930555 3.48865327-2.09895833 6.0719866-2.09895833.71502977 0 1.44447545.12131076 2.18833709.36393229.7438616.24262153 1.4358259.56987847 2.0758928.98177083.640067.41189237 1.1907552.7983941 1.6520648 1.15950521.4613095.36111111.8995535.74479167 1.3147321 1.15104167.4151786-.40625.8534226-.78993056 1.3147321-1.15104167.4613096-.36111111 1.0119978-.74761284 1.6520648-1.15950521.6400669-.41189236 1.3320312-.7391493 2.0758928-.98177083s1.4733073-.36393229 2.1883371-.36393229c2.5833333 0 4.6073289.69965278 6.0719866 2.09895833 1.4646577 1.39930556 2.1969866 3.34027778 2.1969866 5.82291667z" fill="#ffe8df" opacity=".916667" stroke="#b22d00" transform="translate(1 1)"/></svg>