<svg height="50" viewBox="0 0 55 50" width="55" xmlns="http://www.w3.org/2000/svg"><g fill="#b22d00"><path d="m43.6397661 39.0456522c-.4866374-.3421739-1.1546784-.2191305-1.4918616.2742391-.3267836.4782609-.6970955.9432609-1.1011794 1.3822826-.2707115.2944565-.6431676.6494565-1.0484308.9990218-.4509356.3891304-.5053996 1.0751086-.1216861 1.5323913.2120663.2526087.513655.3823913.8170663.3823913.2456237 0 .4925341-.0851087.6944152-.2592392.472807-.4080434.8972612-.8132608 1.2268323-1.1720652.4740936-.515.9100195-1.0622826 1.2955556-1.6266304.3371832-.4933696.2160331-1.1705435-.2707115-1.5123913z"/><path d="m38.9689474 43.9193478c-.2515205-.5434782-.8896492-.7773913-1.425926-.5225l-.0335575.0153261c-.5417446.2422826-.7870467.8840218-.5478557 1.4332609.1769006.4065217.5695127.6483695.9813158.6483695.1446296 0 .2916179-.0298913.4322807-.092826.0261598-.0116305.0521052-.023587.0781579-.0358696.5360624-.255.7668908-.9020652.5155848-1.4457609z"/><path d="m51.689922.0001087h-48.48694929c-1.76621832 0-3.20297271 1.45684782-3.20297271 3.2472826v30.4621739c0 1.7903261 1.43675439 3.2470652 3.20297271 3.2470652h22.57744639c.9570858 4.1054348 3.121384 7.0130435 5.0129337 8.8758696 2.7609357 2.7193478 5.925848 4.1675 7.1490351 4.1675 1.2230799 0 4.3879922-1.4480435 7.1490351-4.1673913 1.8915497-1.8629348 4.0559552-4.7705435 5.0129337-8.8758696h1.5855653c1.7661111 0 3.2029727-1.4567391 3.2029727-3.2470652v-30.4622826c0-1.79043478-1.4368616-3.2472826-3.2029727-3.2472826zm-3.229883 32.5019565c0 5.7269565-2.6074074 9.5257609-4.7949708 11.7041305-2.5948635 2.5840217-5.2566277 3.5891304-5.7226803 3.6196739-.4661598-.0305435-3.1280312-1.0355435-5.7228947-3.6196739-2.187349-2.1783696-4.7948636-5.977174-4.7948636-11.7041305v-5.3528261c3.6913256-1.0822826 7.1452827-2.5634782 10.51808-4.51 3.2967836 1.8970652 6.9055555 3.4441305 10.5173294 4.5093479zm4.2886062 1.2075c0 .5917391-.4750585 1.0731522-1.0587232 1.0731522h-1.2126803c.0821248-.7283696.127154-1.4879348.127154-2.2806522v-6.1769565c0-.4906522-.3242105-.9203261-.7911208-1.048913-3.8932067-1.0718479-7.8108577-2.7420653-11.3293568-4.83-.3345029-.1984783-.7485575-.1982609-1.0832748.0002173-3.6182067 2.147174-7.3240059 3.7268479-11.3291423 4.8297827-.4669104.1286956-.7911209.5583695-.7911209 1.048913v6.1769565c0 .7927174.044922 1.5522826.127154 2.2806522h-22.20456139c-.58377193 0-1.0587232-.4815217-1.0587232-1.0731522v-18.4922826h50.60439569zm0-20.6660869h-50.60439569v-4.34760873h50.60439569zm0-6.52163047h-50.60439569v-3.27445653c0-.59184782.47495127-1.07336956 1.0587232-1.07336956h48.48694929c.5836647 0 1.0587232.48152174 1.0587232 1.07336956z"/><path d="m12.8651754 22.826413c-.646384 0-1.2846198.1325-1.8753606.3851087-.5771247-.2479347-1.21139375-.3851087-1.87653995-.3851087-2.66026315 0-4.82466861 2.1941305-4.82466861 4.891087s2.16429824 4.8913043 4.82466861 4.8913043c.6651462 0 1.29941525-.1371739 1.87643275-.3851086.590848.2526086 1.2290838.3851086 1.8754678.3851086 2.6603704 0 4.8247759-2.1943478 4.8247759-4.8913043s-2.1644055-4.891087-4.8247759-4.891087zm-3.75190055 7.6084783c-1.47803119 0-2.6804191-1.218913-2.6804191-2.7173913 0-1.4983696 1.20238791-2.7171739 2.6804191-2.7171739 1.47781675 0 2.68020465 1.2188043 2.68020465 2.7171739s-1.2023879 2.7173913-2.68020465 2.7173913zm4.01768035-.0132609c.5092592-.7751087.8067738-1.705.8067738-2.7040217s-.2975146-1.9286957-.8066666-2.7038044c1.3535575.1356522 2.4145321 1.2965218 2.4145321 2.7038044s-1.0609746 2.5682609-2.4146393 2.7040217z"/><path d="m10.8752047 17.9348913h-5.51468813c-.5921345 0-1.07212476.4866304-1.07212476 1.0869565 0 .6002174.47999026 1.0869565 1.07212476 1.0869565h5.51468813c.5921345 0 1.0721247-.4868478 1.0721247-1.0869565 0-.6003261-.4799902-1.0869565-1.0721247-1.0869565z"/><path d="m14.0444055 17.9348913h-.0508188c-.5921345 0-1.0721247.4866304-1.0721247 1.0869565 0 .6002174.4799902 1.0869565 1.0721247 1.0869565h.0508188c.5920272 0 1.0721247-.4868478 1.0721247-1.0869565 0-.6003261-.4800975-1.0869565-1.0721247-1.0869565z"/><path d="m43.8273879 30.0028261c-.4184503-.4242391-1.0972125-.4244565-1.5160916-.0001087l-5.7334016 5.8122826-3.0044152-3.0461957c-.4187719-.4241304-1.0976413-.4243478-1.516306 0-.4186647.4245653-.4187719 1.1128261 0 1.5372827l3.7626218 3.8147826c.209386.2122826.4837427.3184782.7580994.3184782.2743568 0 .5488207-.1061956.7579922-.3184782l6.4913938-6.5807609c.4187719-.4243478.4187719-1.1126087.0001072-1.5372826z"/></g></svg>