<svg height="14" viewBox="0 0 14 14" width="14" xmlns="http://www.w3.org/2000/svg"><path d="m341.396245 8.38985267 6.220998.00000312c.212458-.00369635.382757-.17714849.382757-.3898447s-.170299-.38614822-.382757-.3898444l-6.220998-.00000312.000025-6.22703609c-.003693-.21266409-.176977-.38312748-.389468-.38312748-.21249 0-.385775.17046369-.389467.38312778l-.000025 6.22703609-6.221014-.00001966c-.140757-.00244878-.271881.07131499-.342975.19294015-.071094.12162515-.071095.27218397-.000001.39380907.071095.12162509.202219.19538876.342975.19293988l6.221015.00001966-.000008 6.22701953c.003693.2126641.176977.3831275.389467.3831275.212491 0 .385775-.1704637.389468-.3831278z" fill="#5c591a" transform="translate(-334 -1)"/></svg>