<svg height="34" viewBox="0 0 34 34" width="34" xmlns="http://www.w3.org/2000/svg"><path d="m502.31661 38.9886826 10.424272-10.4242607c.34982-.3621955.344817-.9379235-.011245-1.2939851-.356061-.3560617-.931789-.3610646-1.293984-.0112444l-10.424271 10.4242607-10.424253-10.4243346c-.362195-.3498201-.937923-.3448172-1.293984.0112444s-.361064.9317896-.011244 1.2939852l10.424252 10.4243345-10.424326 10.4242608c-.23996.2317608-.336196.5749636-.25172.8976982.084476.3227345.336517.5747758.659251.6592515s.665937-.0117605.897697-.2517202l10.424327-10.4242607 10.424253 10.4242792c.362195.3498201.937922.3448172 1.293984-.0112444.356061-.3560617.361064-.9317896.011244-1.2939852z" fill="#42261d" transform="matrix(.70710678 .70710678 -.70710678 .70710678 -309.683333 -364.837662)"/></svg>