<svg height="32" viewBox="0 0 31 32" width="31" xmlns="http://www.w3.org/2000/svg"><path d="m485.763242 15.9896258 9.555582-9.55557239c.320668-.33201259.316082-.85976322-.010307-1.18615304-.32639-.32638982-.85414-.33097583-1.186152-.01030735l-9.555582 9.55557238-9.555565-9.55564007c-.332013-.32066849-.859763-.31608248-1.186152.01030735-.32639.32638982-.330976.85414045-.010308 1.18615303l9.555565 9.55564009-9.555632 9.5555723c-.219963.2124474-.30818.52705-.230744.82289s.308474.5268778.604314.6043139c.295839.0774361.610442-.0107805.822889-.2307435l9.555633-9.5555724 9.555565 9.5555893c.332012.3206685.859762.3160825 1.186152-.0103073.326389-.3263899.330975-.8541405.010307-1.1861531z" fill="#b22d00" transform="matrix(.70710678 .70710678 -.70710678 .70710678 -315.763023 -337.946789)"/></svg>