<svg height="61" viewBox="0 0 72 61" width="72" xmlns="http://www.w3.org/2000/svg"><g fill="#b22d00"><path d="m71.7644531 31.0407649-7.7651368-12.444917c-.0061522-.0094795-.0127441-.0180973-.0184569-.0271459-.0061524-.0094796-.0123047-.0180973-.018457-.027146-.0127442-.0189591-.0259278-.0374873-.0404298-.0560155-.0052733-.0073251-.0118652-.0142193-.0175781-.0219753-.0175782-.0215444-.0342773-.0430888-.0531738-.0633405-.0039551-.004309-.0083496-.0086178-.0127441-.0129268-.0105469-.0116339-.0215332-.0232679-.0333985-.0349019-.0043945-.0043088-.008789-.0090486-.0131836-.0137884-.0386719-.038349-.0804199-.073251-.1230469-.1064295-.0083495-.0060323-.0166992-.0124957-.0241698-.0185281-.0333985-.0245607-.0676759-.0478286-.1032716-.0693731-.004834-.0030161-.0101074-.0064632-.0153808-.0094795-.0070313-.0043089-.013623-.0086177-.0206543-.0124958-.0013183-.0004309-.0017579-.0017234-.0026367-.0021544-.0026368-.0017236-.0061524-.0021544-.0087891-.0043088-.0439453-.0241298-.0887696-.0456743-.1344727-.0650642-.0065917-.0025853-.0127441-.0060324-.0193358-.0086178-.0043946-.0021544-.0083497-.0038779-.0127443-.0051706-.0500976-.0198208-.1015137-.0366255-.1538085-.0512758-.0074708-.0017235-.0153809-.0043088-.0224121-.0060324-.0026368-.0004308-.0043945-.0012927-.0065919-.0025853l-22.7078613-5.6786773c-.0316406-.0073252-.0632812-.0129268-.0953613-.0189592-.5493164-1.2138125-1.1874024-2.1746934-1.9204102-2.89341514-1.7978027-1.76276421-4.0152831-3.44839939-7.9132323-4.39290662-2.5958496-.62866611-5.0128418-.6639989-5.1020508-.67390936-.1028321-.01120304-.2069825-.01680467-.3106934-.01680467h-2.4134766v-1.51112531c0-1.13366724-.7062011-2.15271824-1.7811035-2.56981815-.3366211-.13012822-.6881836-.19346884-1.035791-.19346884-.764209 0-1.5130371.30506897-2.0566406.87341069l-6.5386231 6.83862881c-.5119628.53516326-.7857422 1.24871435-.7606934 1.98165538.0250488.73380291.3467286 1.42753311.8938478 1.92822531l6.5381835 5.9837464c.5326172.4869039 1.2234375.7428515 1.9234863.7428515.3792481 0 .7615723-.0745437 1.1228028-.2283708 1.0287597-.4386444 1.6945312-1.4344273 1.6945312-2.5344852v-.6558121h2.4134766c1.0278809 0 1.9955567.0805761 2.9012696.2417284l-.4851563.2671508-15.8937012 8.5527025c-.0105469.0051707-.0202148.011634-.0307617.0176664-.0030762.0021545-.0065918.003878-.0105468.0060325-.004834.0030163-.0101075.0051707-.0153809.0086178-.0070313.0043088-.0140625.0090486-.0210938.0133574-.0158203.0094796-.0312012.0202518-.0461426.0305931-.0127441.0086178-.0259277.0168047-.0377929.0258533-.0035157.0021544-.0061523.004309-.0092285.0064634-.014502.0107722-.0276856.0215445-.0413087.0327475-.0131835.0103413-.0268066.0211135-.0395507.0323166-.004834.0034472-.009668.007756-.0145019.0120649-.0065919.0060324-.0131837.0124958-.0197755.0189591-.0035156.0025853-.0061523.0056015-.0092285.0086178-.0118653.0107722-.0237304.0215443-.0351562.0331783-.0079103.0077561-.0149415.0159429-.0224122.023268-.0101074.0103413-.0193359.0211136-.0294433.0318858-.0070312.007756-.0140625.0159428-.0210937.0241297-.0105469.011634-.0197755.0241298-.029004.0366255-.0105468.0120649-.0206543.0245606-.0298828.0374873-.0026368.003878-.0052734.0068942-.0079101.0103413-.0166993.0224062-.0316406.0461051-.0461426.069373-.0057129.0086178-.0114258.0163738-.0166992.0249916l-2.29482428 3.7741508c-.3985839.6558121-.17929687 1.5038004.4891113 1.8946161.66840829.389954 1.53325208.1762333 1.93139648-.4795786l1.7626465-2.8985859 16.0611329 3.8418004 9.1973144 2.2009776-9.5572266 15.3844372-24.97368159-6.1759226 2.02236334-3.326458c.3985839-.6553811.17929687-1.5029385-.48911141-1.8937541-.66796875-.3908158-1.5328125-.1766643-1.93139651.4791478l-2.99091792 4.9194521c-.22763666.3744419-.26191406.8333381-.09140625 1.2362186.17050782.4033115.52558594.7036407.95756839.810501l9.70927725 2.4013407v6.1311101c0 .636853.4434083 1.1909754 1.0744629 1.3422172l28.1421387 6.7321994c.03208.0077559.0650391.0120649.0979981.0172355.0206543.003878.0413086.0086178.0615234.0112031.0580078.0073252.1160156.0107723.1740234.0107723.0549317 0 .1098633-.004309.163916-.0099105.0123047-.0017236.02417-.0034471.0364747-.0051707.0531738-.0073251.1059081-.0168046.1577637-.0305931.0083495-.0021544.0158203-.0047398.0241699-.0068942.0479004-.0133575.0949219-.0288695.1410644-.0473976.0092285-.0030163.0180176-.0064634.0272461-.0099105.0505371-.0211135.0997559-.0452432.1476562-.0723892.0043946-.0017236.0087891-.0034471.0131837-.0056017l22.3602538-12.8064322c.4324219-.2477608.6987306-.7019171.6987306-1.1926989v-13.6065918h6.3558104c.5097656 0 .9795411-.270167 1.2291505-.7066569.2487304-.4356281.2386231-.9694988-.0276856-1.3960782zm-12.6755859-11.2211941-18.867041 10.669657-3.2053712-.7669812.0087891-5.0870678c.0553712.3266134.0755859.5330089.0791016.5730816.0874512 1.4654512 1.3253906 2.5870535 2.8085449 2.5870535.0421875 0 .084375-.0012927.1270019-.0030162 1.5416016-.0659259 2.7413087-1.350835 2.6925294-2.863253-.0039551-.1150472-.0975587-2.8533426-.5963379-6.0177865-.2039062-1.2900797-.4438477-2.4603724-.7211427-3.5160489zm-39.2251465-7.6254309v3.4195299l-6.5386231-5.9837464 6.5386231-6.8386287v4.27398132s3.9251953-.07109654 5.23125 0c3.0304687.1645994 7.9795899.72820135 11.3330567 4.27398148 2.8502929 3.013633 3.4875 13.6776884 3.4875 13.6776884s-.871875-12.822806-14.8205567-12.822806c-.155127 0-5.23125 0-5.23125 0zm9.0008789 5.6963438 2.6868164-1.4792396c1.0160156.5528296 1.9072265 1.261641 2.6709961 2.126434-.0013184.0288694-.0043946.0564463-.0043946.0853158l-.0184569 10.4253433-18.047461-4.3170702zm-15.1606934 29.4990464 15.2885743 3.7810452c.1142577.0284387.2302733.0417961.3440917.0417961.4833985 0 .9435059-.2447446 1.2032227-.6627062l1.4523926-2.3380002 3.9322266.7208762c.0870116.0159429.1740234.0236989.2601562.0236989.6653321 0 1.2568359-.4636359 1.3833984-1.1280656.1432618-.7497457-.3607909-1.4714837-1.1254394-1.6119534l-2.8823731-.528269 5.4676758-8.8017561v20.9105802l-25.3239258-6.0582902zm47.6846192-1.4331346-19.5424805 11.1927555v-24.3887107l19.5424805-11.0518551zm2.8182128-15.5761825v-6.158256l3.8425781 6.158256z"/><path d="m55.2014649 36.014078c-.4368165-.246899-.975586-.2447446-1.4115236.0047398l-9.2992675 5.3188856c-.4333007.2481917-.69917.7023481-.69917 1.1935607v8.3532013c0 .4955215.2711427.9535559.7105958 1.1991623.2166504.1215104.4579101.1822657.698291.1822657.2478516 0 .4952637-.0637714.7163087-.1917453l9.2992675-5.3796409c.4293457-.2481916.6930181-.7006243.6930181-1.1901135v-8.292877c.0004389-.4946598-.2698248-.9514014-.70752-1.1974387zm-2.1106934 8.70179-6.4810547 3.7495904v-5.1409288l6.4810547-3.7073633z"/><path d="m36.4416504 51.0512192-2.9838867-.5480899c-.7646484-.1396079-1.5011719.3541901-1.6439942 1.1043667-.1432617.7497458.3612305 1.4719145 1.1258789 1.6119533l2.9843262.5472282c.0874511.0163738.1744629.0236989.2605957.0236989.6653321 0 1.256836-.463205 1.3833985-1.1276348.1432617-.7501766-.360791-1.4714837-1.1263184-1.6115224z"/><path d="m45.2021484 37.3963678c.2416992 0 .4869141-.0607552.7105957-.1891599l3.947168-2.2669036c.6719238-.3852141.8969238-1.2319097.5040528-1.8903071-.3933106-.6588283-1.2563965-.8794431-1.9274415-.4942289l-3.9480468 2.2669035c-.6714844.3852142-.8969238 1.2319098-.5040528 1.8898762.262793.4395062.7338868.6838198 1.2177246.6838198z"/><path d="m52.9444337 29.9954297-.0676759.015512c-.7580566.1749407-1.2282715.9182231-1.0507324 1.6606437.1524902.6368529.7308105 1.0664486 1.3706543 1.0664486.1063477 0 .2144531-.0116339.3229981-.0366255l.0681152-.015512c.7576171-.1740789 1.227832-.9177921 1.0502929-1.6606436-.177539-.7428515-.9360352-1.2034712-1.6936522-1.0298232z"/><path d="m7.34414062 34.9553854c.10678714 0 .21445313-.011634.32299808-.0366255l.06811515-.015512c.7576173-.1740789 1.22827151-.9173613 1.05029302-1.6606437-.17753906-.7428515-.93559567-1.2034711-1.69321286-1.029823l-.06855469.0155119c-.75761718.1740789-1.22783208.9177921-1.0498536 1.6606436.15161142.6368531.73081058 1.0664487 1.3702149 1.0664487z"/></g></svg>