<svg height="14" viewBox="0 0 18 14" width="18" xmlns="http://www.w3.org/2000/svg"><g fill="none"><path d="m17.6484375 11.5619965c-.1941834 0-.3515625.1595814-.3515625.3564821v1.3685571h-2.0983887v-2.400545c0-.1969007-.1573791-.3564821-.3515625-.3564821-.194046 0-.3515625.1595814-.3515625.3564821v2.400545h-2.0960541v-2.400545c0-.1969007-.1573791-.3564821-.3515625-.3564821-.1941833 0-.3515625.1595814-.3515625.3564821v2.400545h-2.09605404v-2.400545c0-.1969007-.15751646-.3564821-.3515625-.3564821-.19418334 0-.3515625.1595814-.3515625.3564821v2.400545h-2.09619141v-2.400545c0-.1969007-.15737913-.3564821-.3515625-.3564821-.19418333 0-.3515625.1595814-.3515625.3564821v2.3791004c-.56703185-.0370407-1.1166229-.1217052-1.63627622-.2510692v-2.1280312c0-.1969007-.15751649-.3564821-.3515625-.3564821-.19418337 0-.3515625.1595814-.3515625.3564821v1.9195727c-.48875428-.169886-.94207764-.3826613-1.34747314-.6352623-.01991275-.0125326-.03941346-.0252044-.05905153-.037737v-2.15434957c0-.19676142-.15737914-.35648213-.3515625-.35648213-.19418334 0-.3515625.15972071-.3515625.35648213v1.61154987c-.61509702-.5785872-.94551086-1.2467127-.94551086-1.93837158v-4.35186696c.00686644.00891205.01414491.01768486.02114866.02659692.00906374.01155782.01812748.02297637.0273285.0345342.01551818.01935588.0314484.03857247.04751589.05778911.00865171.01030454.01716613.02074836.02595519.0310529.02018739.02367266.04078674.04720604.06166076.07060018.00494385.00557004.00961306.01114007.0145569.0167101.02595519.02882494.05259702.05751059.07965088.08605704.00755311.00793728.01538086.01587457.02307129.02381186.01977539.02060916.03982542.041079.06015013.06154889.01016237.0101653.02059938.02019136.03089907.03035669.01853941.01810259.03721616.03620519.0561676.05430781.01098633.01044382.02224729.02102689.0335083.03147071.01908875.0178241.03858947.03564821.05809018.05333304.01098633.00988682.02197266.01977363.03323366.02966042.02224733.01991287.04504395.03954727.06797792.05918163.0086517.00724104.0170288.01476057.02568055.02200161.03172299.02673616.06385802.05333308.09667968.07965147.00645445.00529155.0131836.01044383.01977539.0155961.02636719.02102688.05314634.04205377.0802002.06280213.01181029.0090513.02389525.01810259.03584289.02715392.02238465.01684934.04490659.03355944.06770324.05026954.01345823.00974754.0269165.01949512.04037477.02910342.02238462.01615309.04504394.03216695.06784056.04804156.01359559.00946902.02705382.01879884.04064941.02812865.02471924.01684934.04971315.03355944.07484435.05040878.01194764.00779805.02375793.01573537.03570557.02367266.03735351.02436891.07498171.04845929.11315918.07227119 1.26383973.78802046 2.93692018 1.22192602 4.71107482 1.22192602h10.54330446v1.3685572c0 .19690065.1573791.35648212.3515625.35648212s.3515625-.15958147.3515625-.35648212v-1.72503933c0-.19690066-.1573791-.35648213-.3515625-.35648213h-7.3421631v-3.63500368c0-.92810678-.55892945-1.78770215-1.57379149-2.42045792-.96157839-.59947482-2.23269655-.92963855-3.5793457-.92963855-1.34664916 0-2.61790467.33016373-3.57934571.92963855-1.01486204.63261653-1.5737915 1.49235114-1.5737915 2.42045792v6.30179635c0 1.19477208.7253723 2.30487978 2.04249572 3.12618118 1.17539979.7327378 2.70483398 1.1591239 4.34028628 1.215242.02156066.0043167.04367064.006684.06646725.006684.01565554 0 .03089907-.0013925.04600526-.0034813.08583068.0020888.17193603.0034813.25831603.0034813h10.89486696c.1941834 0 .3515625-.1597207.3515625-.3564821v-1.7250393c0-.1969007-.1573791-.3564821-.3515625-.3564821zm-15.70646668-10.02508509c.85240174-.53138117 1.99264528-.82394716 3.21116639-.82394716 1.21838379 0 2.35876465.29256599 3.21102903.82394716.79898073.49810025 1.23898317 1.14199609 1.23898317 1.81318506 0 .88855957-1.30490114 1.63926081-2.84944152 1.63926081-.10011294 0-.19912721-.00334202-.29690553-.00946909 0 0 0-2.43173723 0-2.43201575 0-.04469951-.00837707-.08939901-.02458188-.13089578-.02046207-.05194055-.05287173-.09886807-.09420778-.13604805-.03007509-.02701468-.06440734-.04678828-.1009369-.06335914-.31956483-.14496011-.69378662-.22196581-1.08393859-.22196581-1.09465028 0-1.95199583.59501879-1.95199583 1.35449281 0 .6615807.39234923 1.27052461 1.10494993 1.71473474.65917969.41106846 1.52847292.63749033 2.44761658.63749033.91914367 0 1.78829955-.22642187 2.44761656-.63749033.14804078-.09232331.28207399-.19174838.40182496-.29730053v2.21756947h-2.84944152c-1.64602662 0-3.18823242-.39644709-4.3428955-1.11623466-1.03230285-.64375656-1.62982178-1.47007101-1.70054628-2.34359146-.0046692-.05820686-.00700382-.11669218-.00700382-.17517756-.00013729-.67104973.43986515-1.31508481 1.23870853-1.81318506zm3.81170654 3.34369095c-1.06855773-.23867591-1.84954834-.84316379-1.84954834-1.53050589 0-.30273129.53421022-.64138931 1.24900819-.64138931.21286009 0 .41651915.02966042.60054015.08591775z" fill="#42261d"/><path d="m17.5 10c-.2753906 0-.5.2246093-.5.5 0 .2753906.2246094.5.5.5s.5-.2246094.5-.5c0-.2753907-.2246094-.5-.5-.5z" fill="#b22d00"/></g></svg>