<svg height="26" viewBox="0 0 39 26" width="39" xmlns="http://www.w3.org/2000/svg"><path d="m39 12.9990641c-.011424-.4434964-.1450274-.7108508-.3160561-.9027365l-9.3888889-11.55503479c-.4434427-.62523531-1.4484833-.72417524-2.076742-.21646899-.6283309.50770624-.6616975 1.45700231-.1575883 2.02194205l7.4704574 9.20791983h-33.08674322c-.79776359 0-1.44443888.6466482-1.44443888 1.4443784s.64667529 1.4443784 1.44443888 1.4443784h33.08674322l-7.4704574 9.2079126c-.5718533.5706017-.409354 1.5714115.194277 2.108287.4646038.4133089 1.7029213.2815816 2.0400533-.3028139l9.3888889-11.5550276c.2445074-.2992752.3189465-.5217817.3160561-.9027365z" fill="#fff" transform="matrix(-1 0 0 1 39 0)"/></svg>