<svg height="22" viewBox="0 0 34 22" width="34" xmlns="http://www.w3.org/2000/svg"><path d="m46 37.9992081c-.0099594-.3752662-.1264341-.6014892-.2755361-.763854l-8.1851852-9.7773371c-.3865911-.5290453-1.2627803-.6127637-1.810493-.1831661-.5477757.4295976-.5768645 1.2328481-.1373847 1.7108741l6.5127064 7.7913167h-28.844853c-.6954862 0-1.2592544.5471639-1.2592544 1.2221664s.5637682 1.2221664 1.2592544 1.2221664h28.844853l-6.5127064 7.7913106c-.4985388.4828168-.3568727 1.3296559.1693698 1.7839351.4050391.349723 1.4845979.2382614 1.7785079-.2562271l8.1851852-9.777331c.2131603-.2532329.2780559-.4415076.2755361-.763854z" fill="#b22d00" transform="matrix(-1 0 0 1 46 -27)"/></svg>