<svg height="10" viewBox="0 0 10 10" width="10" xmlns="http://www.w3.org/2000/svg"><path d="m4.19976367.18348735-1.73767834 2.31642844h-1.99333991c-.25898184 0-.46874542.27969018-.46874542.62500599v3.75003592c0 .34505539.20976358.62500599.46874542.62500599h1.99333991l1.73767834 2.31642844c.29355182.39140997.8001875.11640736.8001875-.44193132v-8.74904215c0-.55885952-.5070263-.83282047-.8001875-.44193131zm4.81655453 4.81645239.89139754-1.18855305c.12304566-.16406408.12304566-.43021246 0-.59427653l-.44569877-.59427653c-.12304567-.16406407-.3226531-.16406407-.44569877 0l-.89139754 1.18855306-.89139755-1.18855306c-.12304567-.16406407-.3226531-.16406407-.44569877 0l-.44569877.59427653c-.12304568.16406407-.12304568.43021245 0 .59427653l.89139754 1.18855305-.89120223 1.18829263c-.12304568.16406407-.12304568.43021246 0 .59427653l.44569877.59427653c.12304567.16406407.3226531.16406407.44569877 0l.89120224-1.18829264.89139754 1.18855305c.12304567.16406408.3226531.16406408.44569877 0l.44569877-.59427652c.12304566-.16406407.12304566-.43021246 0-.59427653z"/></svg>