<svg height="10" viewBox="0 0 10 10" width="10" xmlns="http://www.w3.org/2000/svg"><path d="m3.73315972 1.14691764-1.54461805 1.85303791h-1.771875c-.23020834 0-.41666667.22373949-.41666667.49997651v2.99985901c0 .27602869.18645833.4999765.41666667.4999765h1.771875l1.54461805 1.85303791c.2609375.31311029.71128472.09312063.71128472-.35352505v-6.99883774c0-.44706232-.45069444-.66621869-.71128472-.35352505zm4.05069445-1.06411665c-.19392361-.15270116-.45451389-.08832919-.58177084.14478486-.12743055.2326974-.07326389.54539103.12065973.69809219 1.15052083.90599909 1.83715277 2.42905251 1.83715277 4.07439185s-.68663194 3.16839276-1.83715277 4.07439184c-.19392362.15249284-.24809028.4653948-.12065973.69788387.12222223.22311451.38072917.3033191.58177084.14478486 1.3875-1.0928653 2.21614583-2.93132057 2.21614583-4.9172689s-.82864583-3.82419527-2.21614583-4.91706057zm.54947916 4.91706057c0-1.32347946-.55659722-2.54029728-1.4890625-3.25484703-.19427083-.14874301-.45190972-.07957959-.575.15540937-.12309027.23498895-.065625.546016.12864584.69496733.69010416.52893348 1.10208333 1.42764124 1.10208333 2.40447033s-.41197917 1.87553686-1.10208333 2.40447033c-.19427084.14874301-.25173611.45977006-.12864584.69496734.11302084.21582319.36666667.31540184.575.15540936.93246528-.71454975 1.4890625-1.93115924 1.4890625-3.25484703zm-2.46128472-1.60138307c-.20104167-.1318688-.4546875-.04499789-.56614583.19686575-.1109375.24186363-.0375.54580768.1640625.67934307.22413194.14770139.36336805.42581332.36336805.72517425 0 .29956926-.13923611.57747286-.36319444.72517425-.2015625.1335354-.275.43747944-.1640625.67934308.11163194.24290525.36545139.32915119.56614583.19686574.49010417-.3239431.79461806-.93745594.79461806-1.60159139 0-.66413546-.30451389-1.27743996-.79479167-1.60117475z"/></svg>