<svg height="48" viewBox="0 0 48 48" width="48" xmlns="http://www.w3.org/2000/svg"><path d="m28.21875 8.4375v-2.8125c0-3.101625-2.523375-5.625-5.625-5.625h-14.15625-1.40625-7.03125v48h8.4375v-19.6875h8.53125v2.8125c0 3.101625 2.523375 5.625 5.625 5.625h25.40625v-28.3125zm-22.59375 36.75h-2.8125v-42.375h2.8125zm16.96875-11.25c-1.5508125 0-2.8125-1.2616875-2.8125-2.8125v-2.8125h2.8125c1.5508125 0 2.8125 1.2616875 2.8125 2.8125s-1.2616875 2.8125-2.8125 2.8125zm2.8125-7.68075c-.8280937-.4802813-1.7882812-.75675-2.8125-.75675h-14.15625v-22.6875h14.15625c1.5508125 0 2.8125 1.2616875 2.8125 2.8125zm19.78125 7.68075h-17.7255c.4802813-.8280937.75675-1.7882812.75675-2.8125v-19.875h16.96875z" fill="#b22d00"/></svg>