<svg height="42" viewBox="0 0 66 42" width="66" xmlns="http://www.w3.org/2000/svg"><g fill="#b22d00"><path d="m61.3797422 17.8063148-1.709168-6.8749074c.4672852-.0998148.8179102-.5167037.8179102-1.01616666v-1.10846296c0-2.40670371-1.9471289-4.36462963-4.3402735-4.36462963h-7.7849062v-2.28640741c0-1.1842963-.9580313-2.1477037-2.1357188-2.1477037h-39.68275777c-1.1776875 0-2.13571875.9634074-2.13571875 2.1477037v18.84425926c0 .5738704.46264453 1.0392407 1.0334414 1.0392407.57066797 0 1.03344141-.4652407 1.03344141-1.0392407v-18.84425926c0-.03824074.03080859-.06922222.06883594-.06922222h39.68262887c.0380274 0 .068836.03098148.068836.06922222v18.84451856c0 .5738703.4626445 1.0392407 1.0334414 1.0392407.5706679 0 1.0334414-.4652407 1.0334414-1.0392407v-1.1780741h12.1905351c.0010313 0 .0018047.0002592.0027071.0002592.0010312 0 .0019336-.0001296.0028359-.0001296 1.500082.0010371 2.7738047.9911482 3.2113125 2.3555h-3.213375c-.570668 0-1.0334414.4652408-1.0334414 1.0392408v2.2169259c0 1.7955 1.4525156 3.2561666 3.2379961 3.2561666h1.1712422v4.572426h-2.7021328c-.8876485-2.577426-3.3241055-4.4339815-6.1851797-4.4339815s-5.2976602 1.8565555-6.1851797 4.4339815h-.4975781v-7.8287222c0-.5738704-.4626446-1.0392408-1.0334414-1.0392408-.570668 0-1.0334414.4652408-1.0334414 1.0392408v7.8284629h-21.4407188c-.8876484-2.5774259-3.3241055-4.4339815-6.1851797-4.4339815s-5.2976601 1.8565556-6.1851797 4.4339815h-5.94012887c-.03802735 0-.06883594-.0309815-.06883594-.0692222v-2.2862778h4.47807421c.570668 0 1.0334414-.4652407 1.0334414-1.0392407s-.4626445-1.0392408-1.0334414-1.0392408h-9.92062499c-.57066797 0-1.03344141.4652408-1.03344141 1.0392408s.46264453 1.0392407 1.03344141 1.0392407h3.37579687v2.2862778c0 1.1842963.95803125 2.1477037 2.13571875 2.1477037h5.58215627c-.0002578.0230741-.0018047.0460185-.0018047.0692222 0 3.6291111 2.9360977 6.5815556 6.5448281 6.5815556 3.6087305 0 6.5448281-2.9524445 6.5448281-6.5815556 0-.0233333-.0015468-.0461481-.0018046-.0692222h23.2894921c-.0002578.0230741-.0018046.0460185-.0018046.0692222 0 3.6291111 2.9360976 6.5815556 6.5448281 6.5815556s6.5448281-2.9524445 6.5448281-6.5815556c0-.0233333-.0015469-.0461481-.0018047-.0692222h3.3777305c.570668 0 1.0334414-.4652407 1.0334414-1.0392407v-11.0847593c0-2.7367407-2.0078438-5.0105741-4.6201289-5.4104815zm-13.0164375-11.2858148h7.7849062c1.2536133 0 2.2735196 1.02562963 2.2735196 2.28627778v.06922222h-10.0584258zm0 11.2233333v-6.7894814h9.1826367l1.6878984 6.7894814zm-29.693168 22.1696482c-2.4691992 0-4.4780742-2.0200185-4.4780742-4.5032037s2.008875-4.5032037 4.4780742-4.5032037 4.4780742 2.0200185 4.4780742 4.5032037-2.008875 4.5032037-4.4780742 4.5032037zm36.3757969 0c-2.4691992 0-4.4780742-2.0200185-4.4780742-4.5032037s2.008875-4.5032037 4.4780742-4.5032037 4.4780742 2.0200185 4.4780742 4.5032037-2.008875 4.5032037-4.4780742 4.5032037zm8.8873125-13.3018148h-1.1712422c-.6458203 0-1.1712422-.5283704-1.1712422-1.1778148v-1.1778149h2.3423555v2.3556297z"/><path d="m18.6701367 33.2625741c-1.1776875 0-2.1357187.9634074-2.1357187 2.1477037s.9580312 2.1477037 2.1357187 2.1477037 2.1357188-.9634074 2.1357188-2.1477037-.9580313-2.1477037-2.1357188-2.1477037z"/><path d="m55.0459336 33.2625741c-1.1776875 0-2.1357188.9634074-2.1357188 2.1477037s.9580313 2.1477037 2.1357188 2.1477037 2.1357187-.9634074 2.1357187-2.1477037-.9580312-2.1477037-2.1357187-2.1477037z"/><path d="m42.920625 28.8287222h-15.4321406c-.570668 0-1.0334414.4652408-1.0334414 1.0392408s.4626445 1.0392407 1.0334414 1.0392407h15.4321406c.570668 0 1.0334414-.4652407 1.0334414-1.0392407s-.4626445-1.0392408-1.0334414-1.0392408z"/><path d="m16.465582 24.3947407h-13.22758591c-.57066796 0-1.0334414.4652408-1.0334414 1.0392408s.46264453 1.0392407 1.0334414 1.0392407h13.22758591c.570668 0 1.0334414-.4652407 1.0334414-1.0392407s-.4627734-1.0392408-1.0334414-1.0392408z"/><path d="m35.9353242 10.2887037c-.4034765-.40574074-1.0579336-.40574074-1.4614101.0001296l-9.1899844 9.241426-4.7807461-4.8075741c-.4036055-.4058704-1.0579336-.4058704-1.4614102 0-.4036054.4058704-.4036054 1.0637407 0 1.4696111l5.5115157 5.5424444c.2017382.203.4662539.3043704.7306406.3043704s.5290312-.1013704.7306406-.3043704l9.920625-9.9762963c.4036055-.406.4036055-1.0638703.0001289-1.4697407z"/></g></svg>