<svg height="16" viewBox="0 0 20 16" width="20" xmlns="http://www.w3.org/2000/svg"><g fill="#42261d"><path d="m5.79039155 9.65891594-3.81384572-4.15907675 3.81384572-4.15907675c.30819119-.33646924.27224367-.84741546-.08094279-1.14128974-.35318646-.29360372-.88923464-.25908712-1.19799386.07711156l-4.30173396 4.6912818c-.27962792.3046583-.27962792.75951988 0 1.06417818l4.30177454 4.69132046c.16809322.1827872.4032939.2766353.63987405.2766353.19811711 0 .39704568-.0657864.55807923-.1997943.35322703-.2938743.38941799-.80482052.08094279-1.14128976z"/><path d="m14.0597656 5h-13.24234372c-.45148438 0-.81742188.33879708-.81742188.75687708 0 .41804384.3659375.75687709.81742188.75687709h13.24234372c2.3740625 0 4.3053907 1.78824237 4.3053907 3.98624583 0 2.1980035-1.9313282 3.9862458-4.3053907 3.9862458h-12.15242185c-.45148437 0-.81742187.3388333-.81742187.7568771 0 .4180439.3659375.7568771.81742187.7568771h12.15242185c3.2751563 0 5.9402344-2.467428 5.9402344-5.5 0-3.03257203-2.6648047-5.5-5.9402344-5.5z"/></g></svg>