<svg height="28" viewBox="0 0 28 28" width="28" xmlns="http://www.w3.org/2000/svg"><g fill="none" fill-rule="evenodd"><path d="m14.4899419 27.375c4.6944204 0 8.5100581-1.926256 8.5100581-3.8264985s-3.8055796-8.9235015-8.5-8.9235015c-4.69442037 0-8.5 7.023259-8.5 8.9235015s3.79552154 3.8264985 8.4899419 3.8264985z" fill="#ffe8df" opacity=".946289"/><path d="m13.9898467.00005066c-5.65828196 0-10.75931618 3.40851106-12.92455333 8.63612651-2.16523721 5.22737573-.96853264 11.24449033 3.03238657 15.24567373 3.53163272 3.5462747 8.68875126 4.9356877 13.52398426 3.643584 4.8352329-1.2918641 8.611815-5.068709 9.9039109-9.903732 1.2918561-4.8352626-.0975484-9.99241272-3.6438013-13.5240671-2.6177464-2.63214311-6.179818-4.10760041-9.8919271-4.09758514zm-7.5622718 24.26336754v-1.2106132c0-4.1763881 3.38566971-7.5623182 7.5622718-7.5623182 4.1766021 0 7.5622718 3.3859301 7.5622718 7.5623182v1.2106132c-4.4956114 3.3181013-10.6289322 3.3181013-15.1245436 0zm16.3516871-1.0286977v-.1819155c0-4.8462879-3.9429175-8.7892296-8.7894153-8.7892296-4.84649776 0-8.7894153 3.9429417-8.7894153 8.7892296v.1819155c-2.53793407-2.4051681-3.97479449-5.7484356-3.97287899-9.245097 0-7.03718381 5.72515358-12.76237065 12.76229429-12.76237065 7.0371407 0 12.7622939 5.72518684 12.7622939 12.76237065.0016762 3.4966614-1.4349445 6.8399289-3.9731183 9.245097z" fill="#42261d" fill-rule="nonzero"/><circle cx="14" cy="9" fill="#ffe8df" opacity=".946289" r="4"/><path d="m14 4c-2.7613562 0-5 2.23864382-5 5 0 2.7613562 2.2386438 5 5 5 2.7613561 0 5-2.2386438 5-5-.0032844-2.760093-2.2399071-4.9967157-5-5zm0 8.7064827c-2.04689 0-3.7064827-1.6595927-3.7064827-3.70648273 0-2.0471426 1.6595927-3.70648271 3.7064827-3.70648271 2.0471427 0 3.7064827 1.65934011 3.7064827 3.70648271-.0022738 2.04613213-1.6603507 3.70420903-3.7064827 3.70648273z" fill="#42261d" fill-rule="nonzero"/></g></svg>