<svg height="32" viewBox="0 0 24 32" width="24" xmlns="http://www.w3.org/2000/svg"><g fill="none" fill-rule="evenodd" transform="translate(.550781 .363636)"><path d="m4.56105523 8.4535472 14.29904667-.34701224c2.2084887-.05359606 4.0422708 1.69328962 4.0958668 3.90177834.0030145.1242139.0002397.2485007-.0083153.3724563l-.9556613 13.8467955c-.1447463 2.0972619-1.8882563 3.724588-3.9905073 3.724588h-12.95220773c-2.16402198 0-3.93564212-1.7210282-3.99832177-3.8841423l-.39117758-13.4997833c-.06398644-2.2082121 1.67425193-4.050193 3.88246407-4.11417944.00627075-.00018171.01254191-.00034866.01881344-.00050086z" fill="#ffe8df" opacity=".916667"/><path d="m22.5214956 7.96933632h-4.4523728v-1.79871609c0-3.40776559-2.8044255-6.17062023-6.2634655-6.17062023-3.45926591 0-6.2636914 2.76285464-6.2636914 6.17062023v1.79871609h-4.82024039c-.3979207.00111305-.72059571.31855975-.72172551.7110271v19.03767348c.00090385 1.9630047 1.61586067 3.5540225 3.60817549 3.5546904h16.03387501c1.9925408-.0006679 3.6074976-1.5916857 3.6079495-3.5546904v-19.03767348c-.0045193-.39380306-.3292279-.71035931-.7285044-.7110271zm-15.7714956-1.76742806c0-2.62169792 2.18286651-4.74736281 4.8748857-4.74736281 2.6927048 0 4.8751143 2.12566489 4.8751143 4.74736281v1.79809174h-9.75zm15 21.49343204c-.0035952 1.1712076-.9653236 2.119518-2.1526537 2.1228415h-15.9444679c-1.18777946-.0033235-2.14950784-.9516339-2.1528784-2.1228415v-18.24079485h4.07566104v2.87971735c0 .3908457.32154985.7076877.71747638.7076877.3963759 0 .71770101-.316842.71770101-.7076877v-2.87971735h9.59413947v2.87971735c0 .3908457.3213251.7076877.717701.7076877.3959265 0 .7174763-.316842.7174763-.7076877v-2.87971735h3.7098448z" fill="#42261d" fill-rule="nonzero"/></g></svg>