<svg height="26" viewBox="0 0 31 26" width="31" xmlns="http://www.w3.org/2000/svg"><g fill="none" transform="translate(-.5)"><path d="m31.5 7.921875c0 2.4939236-1.3204985 5.0329861-3.9614955 7.6171875l-10.7773438 10.15625c-.2075893.203125-.4613095.3046875-.7611607.3046875s-.5535714-.1015625-.7611607-.3046875l-10.79464287-10.1901042c-.11532738-.0902777-.27390253-.2369791-.47572545-.4401041-.20182291-.203125-.5218564-.5726997-.96010044-1.108724-.43824405-.5360243-.83035715-1.0861545-1.17633929-1.6503906s-.65448289-1.2469618-.92550223-2.0481771c-.27101935-.80121528-.40652902-1.57986111-.40652902-2.3359375 0-2.48263889.73232887-4.42361111 2.19698661-5.82291667 1.46465774-1.39930555 3.48865327-2.09895833 6.0719866-2.09895833.71502977 0 1.44447549.12131076 2.18833709.36393229s1.4358259.56987847 2.0758928.98177084c.640067.41189236 1.1907552.79839409 1.6520648 1.1595052.4613095.36111111.8995535.74479167 1.3147321 1.15104167.4151786-.40625.8534226-.78993056 1.3147321-1.15104167.4613096-.36111111 1.0119978-.74761284 1.6520648-1.1595052.6400669-.41189237 1.3320312-.73914931 2.0758928-.98177084s1.4733073-.36393229 2.1883371-.36393229c2.5833333 0 4.6073289.69965278 6.0719866 2.09895833 1.4646577 1.39930556 2.1969866 3.34027778 2.1969866 5.82291667z" fill="#ffe8df" opacity=".916667"/><path d="m29.7285714 7.62639287c0-.96956176-.1281095-1.82540948-.3843285-2.56754316-.256219-.74213369-.5839409-1.33165118-.9831659-1.76855246-.3992249-.43690129-.8848493-.79300576-1.4568731-1.06831341-.5720238-.27530766-1.1321305-.46084108-1.68032-.55660027s-1.1321304-.14363878-1.7518229-.14363878c-.6196924 0-1.2870536.1526162-2.0020833.45784861-.7150298.3052324-1.373453.68826914-1.9752697 1.14911022-.6018168.46084108-1.117234.89175742-1.5462519 1.29274901s-.7865327.76906596-1.0725446 1.1042231c-.214509.26333776-.5064795.39500664-.8759115.39500664s-.6614025-.13166888-.8759115-.39500664c-.2860119-.33515714-.6435267-.70323151-1.0725446-1.1042231s-.9444351-.83190793-1.5462519-1.29274901c-.6018167-.46084108-1.2602399-.84387782-1.9752697-1.14911022-.71502974-.30523241-1.38239085-.45784861-2.00208331-.45784861s-1.20363343.04787959-1.75182292.14363878c-.54818948.09575919-1.10829613.28129261-1.68031994.55660027-.57202381.27530765-1.05764819.63141212-1.45687314 1.06831341-.39922495.43690128-.72694692 1.02641877-.98316592 1.76855246-.256219.74213368-.3843285 1.5979814-.3843285 2.56754316 0 2.01094289 1.11425471 4.13559983 3.34276414 6.37397073l10.38580729 10.0547145 10.3679315-10.0367596c2.2404266-2.2503409 3.3606399-4.38098274 3.3606399-6.39192563zm1.7714286.29548213c0 2.4939236-1.3204985 5.0329861-3.9614955 7.6171875l-10.7773438 10.15625c-.2075893.203125-.4613095.3046875-.7611607.3046875s-.5535714-.1015625-.7611607-.3046875l-10.79464287-10.1901042c-.11532738-.0902777-.27390253-.2369791-.47572545-.4401041-.20182291-.203125-.5218564-.5726997-.96010044-1.108724-.43824405-.5360243-.83035715-1.0861545-1.17633929-1.6503906s-.65448289-1.2469618-.92550223-2.0481771c-.27101935-.80121528-.40652902-1.57986111-.40652902-2.3359375 0-2.48263889.73232887-4.42361111 2.19698661-5.82291667 1.46465774-1.39930555 3.48865327-2.09895833 6.0719866-2.09895833.71502977 0 1.44447549.12131076 2.18833709.36393229s1.4358259.56987847 2.0758928.98177084c.640067.41189236 1.1907552.79839409 1.6520648 1.1595052.4613095.36111111.8995535.74479167 1.3147321 1.15104167.4151786-.40625.8534226-.78993056 1.3147321-1.15104167.4613096-.36111111 1.0119978-.74761284 1.6520648-1.1595052.6400669-.41189237 1.3320312-.73914931 2.0758928-.98177084s1.4733073-.36393229 2.1883371-.36393229c2.5833333 0 4.6073289.69965278 6.0719866 2.09895833 1.4646577 1.39930556 2.1969866 3.34027778 2.1969866 5.82291667z" fill="#42261d"/></g></svg>