<svg height="14" viewBox="0 0 6 14" width="6" xmlns="http://www.w3.org/2000/svg"><path d="m316 179.999496c-.005576-.238806-.070786-.382766-.154262-.486089l-4.582565-6.221942c-.216437-.336665-.706981-.38994-1.013624-.11656-.306678.27338-.322964.78454-.076916 1.088738l3.646209 4.958111c.234331.334124.351497.593371.351497.777742s-.117166.443618-.351497.777742l-3.646209 4.958107c-.279112.307247-.199799.846145.094823 1.135232.226766.22255.831169.15162.995717-.163054l4.582565-6.221938c.11934-.161148.155673-.280959.154262-.486089z" fill="#42261d" transform="translate(-310 -173)"/></svg>