<svg height="12" viewBox="0 0 24 12" width="24" xmlns="http://www.w3.org/2000/svg"><path d="m23.0625007 5.03225758h-19.85426654l3.28893506-3.37858255c.3669841-.37703247.36839035-.98975862.00314062-1.36858141-.36524973-.37887118-.95887429-.38027441-1.32585839-.00329033l-4.89862137 5.0322609c-.00032813.00029032-.0005625.00062903-.00084375.00091935-.3660466.37703247-.36721848.99174249-.00009375 1.37003303.00032812.00029032.0005625.00062903.00084375.00091936l4.89862137 5.03226087c.36693723.3769357.96056179.3756293 1.32585839-.0032903.36524973-.3788228.36384348-.991549-.00314062-1.3685814l-3.28884131-3.37858256h19.85426654c.5177809 0 .9374993-.43325831.9374993-.96774254 0-.53448412-.4197184-.96774242-.9374993-.96774242z" fill="#42261d" fill-rule="evenodd" transform="matrix(-1 0 0 1 24 0)"/></svg>