<svg height="24" viewBox="0 0 26 24" width="26" xmlns="http://www.w3.org/2000/svg"><g fill="#42261d" transform="matrix(-1 0 0 1 26 0)"><path d="m23.1092704 8.50232589 2.741998-2.65965219c.113068-.10948005.1662298-.26436827.1436162-.41771723-.0224153-.15334896-.1182255-.28764959-.2582711-.36230379l-3.2964279-1.75572064c-.2457741-.13083727-.5544299-.04367657-.6895164.19471663-.1348882.2385856-.0452272.53797205.2007453.66880932l2.7033168 1.43978715-2.3532028 2.28234063-8.4636352-4.50792101 2.3530045-2.28234067 2.3785935 1.26700498c.2457741.13083726.5546282.04386901.6895164-.19471659.1350864-.23839321.0452272-.5379721-.2007453-.66880936l-2.71264-1.44498213c-.1979682-.10543944-.4439407-.07138329-.603426.08350498l-2.7421964 2.65984465-2.7421964-2.65984465c-.1596837-.15488827-.40565618-.18875203-.60342597-.08350498l-9.3909911 5.00183169c-.14004559.0746542-.23585585.20876239-.25827112.36230379-.02261358.15334896.03054822.30823718.14361624.41771723l2.74199796 2.65965219-2.74199796 2.65945981c-.11306802.1096724-.16622982.2643683-.14361624.4179097.02241527.1533489.11822553.2876496.25827112.3621113l2.83780823 1.5115552v5.0522426c0 .1799012.10096777.3453719.26342859.4319554l9.39099105 5.0016393c.0761722.040598.1602789.0608008.2443856.0608008s.1682134-.0202028.2443856-.0608008l9.3909911-5.0016393c.1624608-.0865835.2634285-.2520542.2634285-.4319554v-5.0522426l2.8378083-1.5113628c.1400456-.0746541.2358558-.2089548.2582711-.3623037.0226136-.153349-.0305482-.3082373-.1436162-.4177173zm-10.1092704 4.43961631-8.33588818-4.4398087 8.33588818-4.44000108 8.3358882 4.44000108zm-3.1906994-11.83961811 2.3528061 2.28234067-8.46363522 4.50792101-2.35300441-2.28234063zm-6.11043236 8.00954953 8.46363516 4.50792098-2.3532028 2.2825331-8.46383353-4.507921zm18.18430876 9.10242548-8.3753629 4.4607812v-5.0351183c0-.2720645-.2273261-.4925638-.5078141-.4925638s-.5078141.2204993-.5078141.4925638v5.0351183l-8.37536286-4.4607812v-4.2198866l5.53755459 2.9494183c.07676718.0407904.1608739.0608008.24418715.0608008.13151592 0 .26164332-.0496411.35923882-.1443057l2.7421964-2.6598447 2.7421964 2.6598447c.0975955.094857.2277229.1443057.3592388.1443057.0833133 0 .16742-.0200104.2441872-.0608008l5.5375546-2.9494183zm-5.6922792-2.3119714-2.3532028-2.2827255 8.4636351-4.50772858 2.3534012 2.28234068z"/><path d="m19.5 3c.1314453 0 .2599609-.0535156.3535156-.14667965.0929688-.0929688.1464844-.221875.1464844-.35332035 0-.1316406-.0535156-.26054685-.1464844-.3535156-.0929687-.09316405-.2220703-.1464844-.3535156-.1464844-.1320313 0-.2605469.05332035-.3535156.1464844-.0935547.09296875-.1464844.221875-.1464844.3535156 0 .13144535.0529297.26035155.1464844.35332035.0929687.09316405.2220703.14667965.3535156.14667965z"/><path d="m12.5 15c-.1314453 0-.2605469.0533204-.3535156.1464844-.0929688.0933594-.1464844.221875-.1464844.3535156 0 .131836.0535156.2603515.1464844.3539062.0929687.0929688.2220703.1460938.3535156.1460938s.2605469-.053125.3535156-.1460938c.0929688-.0935547.1464844-.2220702.1464844-.3539062 0-.1316406-.0535156-.2601562-.1464844-.3535156-.0929687-.093164-.2220703-.1464844-.3535156-.1464844z"/></g></svg>