<svg height="36" viewBox="0 0 27 36" width="27" xmlns="http://www.w3.org/2000/svg"><g fill="#b22d00"><path d="m11.6787148.5c3.345805 0 6.0724956 2.61838979 6.1920296 5.89257369l.0040867.22423299v1.78302961h4.4044979c.3620679.00060681.6621519.26433283.7130951.60896627l.0075759.09586001-.001 15.54233743h-1.483l.000129-14.77490698h-3.669954v2.85460358c0 .3874371-.3180923.701516-.7097615.701516-.3594376 0-.6564899-.2639135-.7035025-.6063243l-.0064813-.0951917v-2.85460358h-9.49097663v2.85460358c0 .3874371-.31787.701516-.7099838.701516-.35903014 0-.65623524-.2639135-.70327615-.6063243l-.00648543-.0951917v-2.85460358h-4.03183672v18.08171808c.00318934 1.1105157.87378437 2.0188736 1.97779501 2.0986452l.15193416.0056832 11.21939986-.0001395.0007991 1.2630583.0832009-.0000583v.179h-11.3476221c-1.90519568-.00064-3.46156288-1.4744135-3.56401147-3.3303755l-.00536643-.1933147v-18.87164723c.00102451-.35662427.26933109-.65076012.61724629-.69815606l.09671873-.00667022h4.76840985v-1.78302961c0-3.3780467 2.77427037-6.11680668 6.19633993-6.11680668zm-.1788279 1.44186047c-2.59109778 0-4.70537558 1.99476752-4.81776818 4.4963545l-.00469937.20960688v1.78241071h9.64516125v-1.78241071c0-2.59883427-2.1589427-4.70596138-4.8226937-4.70596138z"/><path d="m27 31.9553244-.0882353.0783353h-3.372549v3.3880049l-.0784314.0783354h-.9215686l-.0784314-.0783354v-3.3880049h-3.372549l-.0882353-.0783353v-.9204407l.0882353-.0881273h3.372549v-3.368421l.0784314-.0783354h.9215686l.0784314.0783354v3.368421h3.372549l.0882353.0881273z"/></g></svg>