<svg height="23" viewBox="0 0 24 23" width="24" xmlns="http://www.w3.org/2000/svg"><path d="m23.3554722 10.003891c-.0007325-.0005264-.0012819-.0012283-.0018313-.0017548l-9.791089-9.38182827c-.4173396-.40008545-.9722052-.62030793-1.5624138-.62030793-.5902085 0-1.1450741.22022248-1.5625968.62030793l-9.78596156 9.37709044c-.00329625.00315863-.00677562.00649263-.00988871.00965123-.85702017.8259659-.85555517 2.1660766.00421186 2.9899368.39280089.3765716.91140797.5945129 1.46609045.6175003.02270737.0021057.04541474.0031586.06830523.0031586h.39005407v6.9042816c0 1.3664322 1.16027345 2.4780731 2.58625978 2.4780731h3.8305871c.38840597 0 .70319603-.3018188.70319603-.6738281v-5.413086c0-.6234664.52941145-1.1305923 1.18005085-1.1305923h2.2593835c.6506395 0 1.1798677.5071259 1.1798677 1.1305923v5.413086c0 .3720093.3147901.6738281.7031961.6738281h3.8305871c1.4261694 0 2.5862598-1.1116409 2.5862598-2.4780731v-6.9042816h.3618529c.5900254 0 1.144891-.2202225 1.5625968-.6204834.8606826-.8250885.8610489-2.167656.0012819-2.9932709zm-.9958282 2.0404358c-.1518097.1454697-.3536124.2256622-.5680505.2256622h-1.065049c-.3884059 0-.703196.3016434-.703196.6738281v7.5781098c0 .623291-.5292283 1.1304169-1.1798677 1.1304169h-3.1273911v-4.7392579c0-1.3664322-1.1600903-2.4782486-2.5862598-2.4782486h-2.2593835c-1.42616946 0-2.58644291 1.1118164-2.58644291 2.4782486v4.7392579h-3.12739107c-.65045632 0-1.17986772-.5071259-1.17986772-1.1304169v-7.5781098c0-.3721847-.31479011-.6738281-.70319603-.6738281h-1.04673659c-.01098744-.0007019-.02179177-.0012283-.03296232-.0014038-.20949381-.0035095-.40598582-.0831757-.55321749-.2244339-.313142-.3000641-.313142-.788414 0-1.0886536.00018312 0 .00018312-.0001754.00036623-.0003509l.00054938-.0005264 9.79072282-9.38147741c.1516267-.14546965.3532462-.22548674.5678674-.22548674.2144382 0 .4160577.08001709.5678675.22548674l9.7885253 9.37954711c.001465.0014038.0031131.0028076.0045781.0042114.3114939.3005905.3109445.7878876-.001465 1.0874253z" fill="#42261d"/></svg>