<svg height="22" viewBox="0 0 23 22" width="23" xmlns="http://www.w3.org/2000/svg"><path d="m218.87774 12.9924551 6.949514-6.94950717c.233214-.2414637.229878-.62528234-.007496-.86265675-.237374-.23737442-.621192-.2407097-.862656-.00749626l-6.949514 6.94950718-6.949502-6.94955641c-.241463-.23321344-.625282-.22987816-.862656.00749626-.237374.23737441-.240709.62119305-.007496.86265675l6.949502 6.9495564-6.949551 6.9495072c-.159973.1545072-.224131.3833091-.167814.5984654.056317.2151564.224345.3831839.439501.439501.215156.0563172.443958-.0078403.598465-.1678134l6.949551-6.9495072 6.949502 6.9495195c.241463.2332134.625282.2298781.862656-.0074963s.240709-.621193.007496-.8626567z" fill="#42261d" transform="matrix(.70710678 .70710678 -.70710678 .70710678 -133.95689 -152.341666)"/></svg>