<svg height="22" viewBox="0 0 22 22" width="22" xmlns="http://www.w3.org/2000/svg"><path d="m339.622671 13.6126256 9.775853.0000049c.333864-.0058085.601476-.2783762.601476-.6126131s-.267612-.6068043-.601475-.6126126l-9.775854-.0000049.000038-9.78534243c-.005802-.33418642-.278106-.60205747-.61202-.60205747-.333913 0-.606218.26787151-.61202.60205794l-.000039 9.78534246-9.775879-.0000309c-.22119-.0038481-.427242.1120664-.538961.3031916-.11172.1911253-.11172.4277177-.000001.6188429.11172.1911251.317772.3070394.538961.3031912l9.77588.0000309-.000013 9.7853164c.005803.3341865.278107.6020575.61202.6020575.333914 0 .606218-.2678715.612021-.6020579z" fill="#b22d00" transform="translate(-328 -2)"/></svg>