<svg height="14" viewBox="0 0 17 14" width="17" xmlns="http://www.w3.org/2000/svg"><path d="m15.8922837 10.7264236c-.1748607 0-.3165794.1480487-.3165794.3307196v1.269653h-1.889583v-2.2270603c0-.18267088-.1417187-.33071954-.3165794-.33071954-.1747369 0-.3165793.14804866-.3165793.33071954v2.2270603h-1.8874808v-2.2270603c0-.18267088-.1417187-.33071954-.3165793-.33071954s-.3165794.14804866-.3165794.33071954v2.2270603h-1.88748074v-2.2270603c0-.18267088-.14184236-.33071954-.31657935-.33071954-.17486062 0-.31657936.14804866-.31657936.33071954v2.2270603h-1.88760441v-2.2270603c0-.18267088-.14171871-.33071954-.31657936-.33071954-.17486061 0-.31657936.14804866-.31657936.33071954v2.2071655c-.51060786-.0343639-1.00551042-.1129097-1.47345428-.2329248v-1.9742407c0-.18267088-.1418424-.33071954-.31657936-.33071954-.17486064 0-.31657935.14804866-.31657935.33071954v1.7808473c-.44011952-.1576086-.84833375-.3550068-1.21338932-.5893526-.01793127-.0116269-.03549152-.0233829-.05317545-.0350098v-1.99865707c0-.18254168-.14171871-.33071955-.31657936-.33071955-.17486061 0-.31657936.14817787-.31657936.33071955v1.49508487c-.55389018-.5367733-.85142533-1.15661408-.85142533-1.79828753v-4.03736229c.00618318.00826799.01273738.0164068.01904421.02467479.00816183.01072255.01632366.0213159.02460911.03203845.013974.01795705.02831904.03578488.0427877.05361275.00779079.00955985.01545796.01924891.02337245.02880875.01817859.02196186.03672814.04379451.05552504.06549798.0044519.0051675.00865648.01033499.01310838.01550248.02337245.02674179.04736322.05335436.07172501.07983779.00680152.00736366.01385035.01472733.02077552.022091.01780759.01911976.03586249.03811027.05416473.05710082.00915114.00943066.01854959.01873215.02782439.02816285.01669459.01679434.03351286.03358867.05057849.05038304.0098931.00968906.02003352.0195073.03017397.02919635.01718927.01653598.03474952.03307196.05230976.04947872.00989311.00917231.01978621.01834462.02992666.0275169.02003356.01847379.04056173.03668923.0612136.05490463.00779079.00671775.01533431.01369384.02312514.02041159.02856631.02480396.05750366.04947875.08705932.07389515.00581218.00490913.01187173.00968905.01780759.01446898.02374345.01950729.04785787.03901458.07221967.05826349.01063507.00839717.02151748.01679433.03227624.02519153.02015721.01563166.04043804.03113414.06096625.04663662.01211904.0090431.02423811.01808623.03635718.02700014.02015718.01498573.04056173.02984228.06108991.04456966.01224272.0087847.02436176.01744026.03660448.02609582.02225949.01563166.04476632.03113414.06739677.04676579.01075876.00723449.02139383.0145982.03215259.02196187.03363656.02260779.06752046.04495718.10189898.06704823 1.13807807.73107108 2.64467428 1.13361875 4.24228704 1.13361875h9.49416541v1.26965307c0 .18267086.1417187.33071955.3165794.33071955.1748606 0 .3165793-.14804869.3165793-.33071955v-1.60037262c0-.18267086-.1417187-.33071956-.3165793-.33071956h-6.611562v-3.37230593c0-.86103352-.50331173-1.65850687-1.41718728-2.24553408-.86589402-.55615142-2.01052626-.86245458-3.22317357-.86245458-1.21264732 0-2.35740324.30630316-3.22317357.86245458-.91387555.58689803-1.41718728 1.38450056-1.41718728 2.24553408v5.84637241c0 1.10842723.65319223 2.13830863 1.83925185 2.90025543 1.05843857.6797837 2.43568243 1.0753553 3.90839478 1.1274178.01941521.0040048.03932507.006201.05985325.006201.01409769 0 .02782438-.0012919.04142739-.0032297.07728987.0019378.15482709.0032297.23261162.0032297h9.81074481c.1748606 0 .3165793-.1481778.3165793-.3307196v-1.6003725c0-.1826709-.1417187-.3307196-.3165793-.3307196zm-14.14355376-9.3005831c.76758129-.49297883 1.79436192-.76440139 2.89163091-.76440139 1.09714533 0 2.12404962.27142256 2.89150721.76440139.71947607.46210309 1.11569492 1.05946528 1.11569492 1.68214816 0 .82434434-1.17505355 1.52079322-2.56590041 1.52079322-.09015094 0-.17931254-.00310049-.26736117-.00878477 0 0 0-2.25599824 0-2.25625663 0-.04146912-.00754349-.08293824-.0221358-.12143608-.01842593-.04818687-.04761059-.09172299-.08483339-.12621601-.02708238-.02506236-.05799832-.04340694-.09089291-.05878024-.2877657-.134484-.62474957-.20592458-.97607845-.20592458-.98572425 0-1.7577574.55201743-1.7577574 1.25660509 0 .61376899.3533075 1.17870518.99499901 1.59081274.59358629.38136098 1.37637823.59141959 2.20406011.59141959s1.61035014-.21005861 2.20406009-.59141959c.1333096-.08565121.25400548-.17789094.36184032-.27581495v2.05730814h-2.56590041c-1.48223445 0-2.87097903-.36779629-3.91074436-1.03556559-.92958086-.59723298-1.46764211-1.36383059-1.53132898-2.17422267-.00420458-.05400032-.00630689-.10825896-.00630689-.16251767-.00012363-.6225537.39609522-1.22004507 1.1154476-1.68214816zm3.43241275 3.10204606c-.96222811-.22142706-1.66550421-.78222927-1.66550421-1.4198979 0-.28085323.48105224-.59503681 1.12472237-.59503681.19167889 0 .37507233.02751689.54078184.07970857z" fill="#42261d" transform="translate(0 .547059)"/></svg>