<svg height="16" viewBox="0 0 17 16" width="17" xmlns="http://www.w3.org/2000/svg"><path d="m265 25.0291667-5.015885-4.725c.920833-1.0833334 1.474218-2.4625 1.474218-3.9625 0-3.5041667-3.014843-6.3416667-6.729166-6.3416667-3.71875 0-6.729167 2.8416667-6.729167 6.3416667s3.014844 6.3416666 6.729167 6.3416666c1.602604 0 3.072395-.5291666 4.227864-1.4083333l5.011459 4.725zm-14.529687-4.6708334c-1.137761-1.0708333-1.76198-2.4958333-1.76198-4.0125 0-1.5166666.628646-2.9416666 1.76198-4.0125 1.133333-1.0708333 2.651822-1.6666666 4.258854-1.6666666 1.607031 0 3.121093.5916666 4.258854 1.6625 1.13776 1.0708333 1.761979 2.4958333 1.761979 4.0125 0 1.5166666-.628646 2.9416666-1.761979 4.0125-1.137761 1.0708333-2.651823 1.6625218-4.258854 1.6625218-1.607032.0041448-3.121094-.5875218-4.258854-1.6583552z" fill="#42261d" transform="translate(-248 -10)"/></svg>