<svg height="12" viewBox="0 0 18 12" width="18" xmlns="http://www.w3.org/2000/svg"><path d="m18 5.99956805c-.0052726-.20469065-.0669357-.32808501-.1458721-.41664763l-4.3333333-5.33309297c-.2046659-.28857014-.6685307-.33423472-.9584963-.09990876-.2899989.23432595-.3053988.6724626-.072733.93320402l3.4479033 4.24980913h-15.2708045c-.36819858 0-.6666641.29845303-.6666641.66663621 0 .36818317.29846552.6666362.6666641.6666362h15.2708045l-3.4479033 4.24980585c-.2639324.2633546-.1889327.7252668.0896663.9730555.2144325.1907579.7859636.1299607.941563-.1397603l4.3333333-5.33308962c.1128496-.13812703.1472061-.24082233.1458721-.41664763z" fill="#fff" transform="matrix(-1 0 0 1 18 0)"/></svg>