<svg height="28" viewBox="0 0 28 28" width="28" xmlns="http://www.w3.org/2000/svg"><g fill="none" fill-rule="evenodd"><path d="m.5.5h27v27h-27z" stroke="#85736b"/><g fill="#85736b" fill-rule="nonzero" transform="translate(3 4)"><path d="m19.0135237 7.25054369h-.0343211c-.4755927.00158093-.9327048.17196702-1.2781789.47620283-.2696659-.73388988-.9849407-1.25962762-1.8252424-1.25962762-.5204742.00632361-1.0151132.21201654-1.3671876.56894909-.3181304-.62533459-.9751346-1.04462495-1.7324622-1.04462495h-.0365841c-.4358028 0-.8601023.12085118-1.1497575.36114829v-4.44637479c0-1.05112419-.875-1.90621654-1.9429149-1.90621654-1.06678339 0-1.93838902.85438972-1.93914333 1.9048113l-.00829741 8.7936797-.57271012-.6485211c-.46088362-.53452054-1.13957437-.86650999-1.87351833-.91674753-.71923489-.04584614-1.426778.18742473-1.95498385.64448106l-.46144932.35658127c-.14011316.1082039-.18009161.2928181-.09617459.4430038l4.48758081 8.0253614c.8163524 1.4609291 2.36928884 2.3630972 4.05272094 2.3630972h5.0333243c2.5523977 0 4.6310884-2.054997 4.6337285-4.5877777.0011314-1.1315745.0024515-1.973317.0032058-2.6589015.0026401-1.8459667.003583-2.5361182-.0015086-4.5681043-.0026401-1.04831371-.8710399-1.90041991-1.9361261-1.90041991zm1.1652209 6.47028071c-.0007543.6855845-.0020744 1.5248678-.0032058 2.6564424-.0022629 2.1363256-1.7343481 3.8689942-3.8613147 3.8689942h-5.0333243c-1.39453129 0-2.68496768-.7537389-3.36780715-1.9756005l-4.3436961-7.7704849.22893322-.1753044c.00490299-.0038645.0099946-.0072019.01470902-.0114177.37281788-.32671967.87481144-.49447095 1.38566811-.46267727.52179419.03723903 1.0037985.27490127 1.33022631.65607437l1.25573811 1.4240414c.10352914.1173381.27494615.1614276.42844828.1103119.15350218-.0511159.25608839-.1865465.25627695-.3384888l.00735454-9.79720118c.00037713-.6537908.52896012-1.18585219 1.17050109-1.18585219.64135232 0 1.17012392.53223704 1.17012392 1.18655481v5.90800658c0 .02037603-.0009429.04075214-.0009429.06130386 0 .00895845.0009429.01738993.0009429.02599705v2.52645717c0 .1986666.1729256.359743.3862069.359743.2132812 0 .3862069-.1610764.3862069-.359743v-2.60163784c0-.6313069.5244342-1.11541424 1.1497575-1.11541424h.0365841c.6415409 0 1.1791756.51063137 1.1791756 1.16512484v2.31092744c0 .1986667.1729257.359743.3862069.359743.2132813 0 .3862069-.1610763.3862069-.359743v-1.81329462c0-.65431782.515194-1.18673047 1.1605065-1.18673047.6417295 0 1.1567349.53241265 1.1567349 1.18673047v1.71071162c0 .1986667.1729256.359743.3862069.359743s.3862069-.1610763.3862069-.359743v-.92623293c0-.65449342.5200969-1.1881357 1.1618265-1.1881357h.0343211c.6400323 0 1.1622037.53153441 1.1637123 1.18391996.0050916 2.03075647.0041487 2.72178637.0015086 4.56687467z"/><path d="m12.941514 3.56317752h5.0054149l-.8974407.83594587c-.0999462.09046274-.1399246.22396114-.104472.34937934.0354525.1255939.1406789.2236098.2755118.25663313.1346444.0328476.2779634-.00439143.3750808-.09748897l1.5510507-1.44459314c.1508621-.14052463.1508621-.36835021 0-.50869915l-1.5510507-1.44459315c-.1510506-.13911938-.3943157-.13841675-.5444235.00140525-.1502963.13999765-.1510506.36659358-.0016971.5072939l.8859374.82523084h-4.9939116c-.2132812 0-.3862069.16107634-.3862069.35974304s.1729257.35974304.3862069.35974304z"/><path d="m1.31853448 3.56317752h4.96091058c.21328126 0 .38620689-.16107634.38620689-.35974304s-.17292563-.35974304-.38620689-.35974304h-4.94940736l.88593753-.82523084c.14935345-.14070032.14859914-.36729625-.00169719-.5072939-.15010781-.139822-.39337287-.14052463-.5444235-.00140525l-1.55105064 1.44459315c-.1506735.14052463-.1506735.36835016 0 .50869915l1.55105064 1.44459314c.09730603.09186799.24005925.12805306.37394936.09485412.13389007-.03302328.23836207-.13051225.27400322-.25522788.03564116-.12471558-.00320585-.25751135-.10183189-.34832538z"/></g></g></svg>