<svg height="29" viewBox="0 0 28 29" width="28" xmlns="http://www.w3.org/2000/svg"><g fill="none" fill-rule="evenodd"><g fill="#85736b" fill-rule="nonzero" transform="translate(5 4.532995)"><path d="m17.8926102 12.4681653-1.3777627-4.41854277c-.0482456-.15512545-.1902738-.26248227-.3532882-.26704477l-2.0745762-.05772298c-.0588714-.12079144-.1774195-.20164822-.3117967-.21266364l-2.1273559-.17316897c-.048497-.15541981-.1911224-.26273475-.3545085-.26674096l-2.06877963-.05195069-1.03240678-3.31147666c-.15804459-.50649793-.57543532-.89055915-1.09494513-1.00751151s-1.0622128.05097198-1.42367799.44051754c-.3614652.38954557-.48677744.94153113-.32873281 1.44802905l2.21735593 7.11086446-1.26213559-1.1435228c-.41177399-.3652348-.98885397-.4819994-1.51111421-.3057542-.52226024.1762453-.9091588.6183201-1.01311418 1.1575963-.10395537.5392761.09106423 1.0925875.51066907 1.4488747l1.75942373 1.5734071h.00183051v.0018229c.38705075.3894595.71648755.8317764.97840677 1.3136536.46525424.759513.90488136 1.4752781 1.60962712 1.5141651.92684746.0510393 1.14925424.6458899 1.49247459 1.7809061l.266339.8600725c.0624773.2003798.276198.3124355.4774576.2503355.3639661-.1130155.3026441-.3095775.0744407-1.0408366l-.0878644-.2886149c-.3172882-1.0490394-.6769831-2.2378291-2.18044071-2.3204641-.30508474-.0167093-.67484745-.6197626-1.00128813-1.1517255-.29969479-.5453643-.67725366-1.0445499-1.12088136-1.4819618l-.00305085-.0027342-1.76308474-1.5791795c-.23671768-.2023374-.32738405-.5269461-.22957527-.8219379.09780877-.2949918.3647482-.5020236.67591425-.5242229.20259191-.0164961.40327952.0492426.55647458.1822831l2.29210169 2.0816732c.31515255.2673486.76515255.0528621.62084746-.3931239l-2.63440678-8.4457845c-.07738736-.24746925-.01631691-.51725277.1602067-.70772573s.44168225-.27269798.69559322-.21570169.45799916.24455479.53538652.49202404l2.06298305 6.61414298c.03802323.1323989.14504284.2339261.27968533.2653313.1346425.0314052.27580764-.0122331.36892134-.1140445.0931136-.1018114.1235838-.2458406.0796306-.3764065l-.79169489-2.53677337 1.53732199.03858326.9622373 3.08574941c.0494391.1588701.1969422.2672175.3639661.2673486.0383844-.0001261.0765344-.0059629.1131865-.0173169.0965468-.0298683.1772167-.0967186.2242512-.1858345.0470344-.089116.0565775-.193192.0265284-.2893169l-.7996271-2.56441964 1.5650848.12729438.8905423 2.85576886c.0494391.1588702.1969422.2672175.3639661.2673486.0383844-.0001261.0765344-.0059628.1131865-.0173169.0966172-.0298649.1773428-.0967631.2243845-.1859497.0470417-.0891867.0565377-.1933406.0263951-.2895055l-.7444067-2.38760501 1.5382372.04283653 1.2972204 4.15909318c.1551369.4982891.0540492 1.0406918-.2703051 1.450366-.6085849.7973692-.7842739 1.8418565-.4698305 2.793185l.3130169 1.00438c.0494391.1588701.1969423.2672175.3639661.2673486.0383837-.0001352.0765324-.0059717.1131865-.0173169.0965468-.0298683.1772167-.0967186.2242512-.1858345.0470344-.089116.0565775-.193192.0265284-.2893169l-.3130169-1.00438c-.2395559-.7126306-.1121575-1.4969844.3407797-2.0980787.4798797-.6059864.6293565-1.4084118.399661-2.1454723z"/><path d="m3.81722034 6.84260448c-.071521-.07123982-.16853561-.11126351-.26969492-.11126351-.1011593 0-.19817391.04002369-.26969491.11126351l-.93172882.92782108v-6.44067021l.93172882.92782108c.14894839.14832368.39044143.14832367.53938982-.00000001.14894838-.14832369.14894839-.38880389.00000001-.53712758l-1.58247458-1.57614137c-.071521-.07123982-.16853561-.11126351-.26969491-.11126351-.10115931 0-.19817392.04002369-.26969492.11126351l-1.58277966 1.57614137c-.1445662.14896762-.14256687.38582504.00449362.53235163.1470605.14652659.38491432.14865154.53459113.00477596l.9320339-.92782108v6.44067021l-.9320339-.92782108c-.1500681-.14088391-.38542332-.13743166-.53125928.00779265-.14583596.14522431-.14930275.37959244-.00782547.52903114l1.58277966 1.57614136c.071521.07123982.16853561.11126351.26969492.11126351.1011593 0 .19817391-.04002369.26969491-.11126351l1.58247458-1.57614136c.07152131-.07116917.11171128-.16772659.11171128-.2684119 0-.1006853-.04018997-.19724273-.11171128-.26841189z"/></g><path d="m.5.992386h27v27.284264h-27z" stroke="#85736b"/></g></svg>