<svg height="12" viewBox="0 0 17 12" width="17" xmlns="http://www.w3.org/2000/svg"><g fill="#42261d" opacity=".70731"><path d="m5.79039155 7.90274941-3.81384572-3.40288098 3.81384572-3.40288098c.30819119-.27529301.27224367-.69333992-.08094279-.93378252-.35318646-.24022122-.88923464-.21198036-1.19799386.06309128l-4.30173396 3.83832147c-.27962792.24926589-.27962792.62142536 0 .87069124l4.30177454 3.8383531c.16809322.14955321.4032939.22633798.63987405.22633798.19811711 0 .39704568-.05382524.55807923-.16346807.35322703-.2404426.38941799-.65848951.08094279-.93378252z"/><path d="m12.2478125 4h-10.593875c-.3611875 0-.6539375.24639787-.6539375.55045606 0 .30403188.29275.55045606.6539375.55045606h10.593875c1.89925 0 3.4443125 1.30053991 3.4443125 2.89908788s-1.5450625 2.8990879-3.4443125 2.8990879h-9.7219375c-.3611875 0-.6539375.2464242-.6539375.550456 0 .3040319.29275.5504561.6539375.5504561h9.7219375c2.620125 0 4.7521875-1.7944931 4.7521875-4 0-2.20550693-2.1318437-4-4.7521875-4z"/></g></svg>